<svg aria-hidden="true" style="position: absolute; width: 0; height: 0; overflow: hidden;" version="1.1" xmlns="http://www.w3.org/2000/svg" xmlns:xlink="http://www.w3.org/1999/xlink">
<defs>
<symbol id="icon-twitter" viewBox="0 0 44 44">
<path d="M44 8.357c-1.636 0.718-3.38 1.194-5.198 1.425 1.87-1.117 3.297-2.871 3.968-4.986-1.743 1.039-3.668 1.774-5.72 2.183-1.656-1.763-4.015-2.854-6.589-2.854-4.994 0-9.014 4.053-9.014 9.023 0 0.715 0.061 1.402 0.209 2.057-7.499-0.366-14.135-3.96-18.593-9.435-0.778 1.35-1.235 2.896-1.235 4.559 0 3.124 1.609 5.893 4.007 7.496-1.449-0.027-2.871-0.448-4.075-1.111 0 0.027 0 0.063 0 0.099 0 4.384 3.127 8.024 7.227 8.863-0.734 0.201-1.534 0.297-2.365 0.297-0.577 0-1.16-0.033-1.708-0.154 1.169 3.572 4.485 6.199 8.429 6.284-3.069 2.401-6.966 3.847-11.184 3.847-0.74 0-1.449-0.033-2.159-0.124 3.996 2.577 8.731 4.048 13.838 4.048 16.599 0 25.674-13.75 25.674-25.668 0-0.399-0.014-0.784-0.033-1.166 1.79-1.271 3.295-2.857 4.521-4.683z"></path>
</symbol>
<symbol id="icon-antenna" viewBox="0 0 44 44">
<path d="M42.313 30.384l-11.609-11.694 1.288-6.346c0.333 0.13 0.686 0.198 1.043 0.2h0.009c1.639 0.019 2.984-1.294 3.004-2.933s-1.294-2.984-2.933-3.003c-1.639-0.019-2.984 1.294-3.003 2.933-0.004 0.351 0.054 0.7 0.172 1.030l-6.82 0.832-11.125-11.183c-0.136-0.139-0.323-0.218-0.518-0.22-0.193 0.001-0.377 0.078-0.513 0.213l-2.080 2.068c-0.286 0.286-0.286 0.751 0 1.037l1.119 1.135c-4.336 7.972-2.927 17.844 3.464 24.286 0.059 0.056 0.127 0.102 0.201 0.134-0.046 0.248-0.070 0.5-0.072 0.752v8.507h-8.8c-2.024 0.002-3.664 1.643-3.667 3.667v1.467c0 0.405 0.328 0.733 0.733 0.733h33.733c0.405 0 0.733-0.328 0.733-0.733v-1.467c-0.002-2.024-1.643-3.664-3.667-3.667h-8.8v-3.77c1.379 0.289 2.783 0.437 4.192 0.44 3.38-0.004 6.706-0.846 9.68-2.452l1.125 1.132c0.136 0.139 0.323 0.218 0.518 0.22 0.192-0.001 0.377-0.078 0.513-0.213l2.080-2.068c0.286-0.286 0.286-0.751 0-1.037zM32.010 8.57c0.574-0.571 1.503-0.569 2.074 0.006s0.569 1.503-0.006 2.074c-0.275 0.273-0.647 0.427-1.035 0.427h-0.004c-0.81-0.004-1.463-0.664-1.459-1.474 0.002-0.388 0.158-0.759 0.432-1.032h-0.003zM30.284 13.389l-0.823 4.050-1.616-1.626 2.439-2.424zM29.45 12.149l-2.64 2.625-2.042-2.053 4.682-0.571zM33.006 39.6c1.215 0 2.2 0.985 2.2 2.2v0.733h-32.267v-0.733c0-1.215 0.985-2.2 2.2-2.2h27.867zM22.739 36.667v1.467h-7.333v-1.467h7.333zM15.406 35.2v-5.573c0-1.779 1.645-3.227 3.667-3.227s3.667 1.448 3.667 3.227v5.573h-7.333zM24.206 32.868v-3.241c0-2.588-2.303-4.693-5.133-4.693-1.83-0.028-3.542 0.904-4.511 2.456-5.579-5.876-6.836-14.637-3.133-21.845l25.578 25.724c-3.95 2.009-8.477 2.575-12.8 1.599zM39.728 31.928l-28.953-29.124 1.038-1.034 10.911 10.972c0.005 0 0.008 0.010 0.013 0.013l18.033 18.138-1.041 1.034z"></path>
<path d="M19.079 27.867h-0.007c-1.215-0.002-2.201 0.982-2.203 2.197s0.982 2.201 2.197 2.203h0.007c1.215 0.002 2.201-0.982 2.203-2.197s-0.982-2.202-2.197-2.203zM19.592 30.587c-0.138 0.137-0.325 0.214-0.52 0.213-0.405-0.002-0.732-0.332-0.73-0.737 0.001-0.194 0.079-0.379 0.216-0.516s0.321-0.212 0.513-0.213c0.405 0.002 0.732 0.332 0.729 0.737-0.001 0.194-0.079 0.379-0.216 0.516h0.007z"></path>
</symbol>
<symbol id="icon-astronaut" viewBox="0 0 44 44">
<path d="M43.964 6.221c-0.087-0.265-0.315-0.458-0.592-0.499l-2.627-0.382-1.176-2.38c-0.246-0.502-1.069-0.502-1.315 0l-1.176 2.38-2.627 0.382c-0.276 0.040-0.505 0.233-0.593 0.499-0.086 0.265-0.015 0.557 0.186 0.752l1.902 1.853-0.449 2.617c-0.047 0.275 0.066 0.553 0.291 0.717 0.228 0.166 0.526 0.186 0.773 0.056l2.35-1.236 2.35 1.236c0.107 0.056 0.225 0.084 0.342 0.084 0.152 0 0.304-0.047 0.431-0.14 0.226-0.164 0.339-0.442 0.291-0.717l-0.449-2.617 1.902-1.853c0.199-0.195 0.271-0.486 0.185-0.752zM40.578 8.045c-0.172 0.168-0.251 0.411-0.21 0.649l0.263 1.532-1.376-0.723c-0.107-0.056-0.224-0.084-0.342-0.084s-0.234 0.028-0.342 0.084l-1.376 0.723 0.263-1.532c0.041-0.238-0.038-0.48-0.21-0.649l-1.114-1.085 1.539-0.224c0.239-0.035 0.445-0.185 0.552-0.401l0.688-1.393 0.688 1.393c0.107 0.216 0.313 0.367 0.552 0.401l1.539 0.224-1.113 1.085z"></path>
<path d="M35.934 28.218h-1.467v1.467h1.467v-1.467z"></path>
<path d="M35.934 31.151h-1.467v1.467h1.467v-1.467z"></path>
<path d="M37.4 29.685h-1.467v1.467h1.467v-1.467z"></path>
<path d="M34.467 29.685h-1.467v1.467h1.467v-1.467z"></path>
<path d="M30.8 36.285h-1.467v1.467h1.467v-1.467z"></path>
<path d="M30.8 39.218h-1.467v1.467h1.467v-1.467z"></path>
<path d="M32.267 37.752h-1.467v1.467h1.467v-1.467z"></path>
<path d="M29.333 37.752h-1.467v1.467h1.467v-1.467z"></path>
<path d="M22 33.351h-1.467v1.467h1.467v-1.467z"></path>
<path d="M22 36.285h-1.467v1.467h1.467v-1.467z"></path>
<path d="M23.467 34.818h-1.467v1.467h1.467v-1.467z"></path>
<path d="M20.533 34.818h-1.467v1.467h1.467v-1.467z"></path>
<path d="M8.066 8.418h-1.467v1.467h1.467v-1.467z"></path>
<path d="M8.066 11.351h-1.467v1.467h1.467v-1.467z"></path>
<path d="M9.533 9.884h-1.467v1.467h1.467v-1.467z"></path>
<path d="M6.6 9.884h-1.467v1.467h1.467v-1.467z"></path>
<path d="M33.983 19.469c-0.395-0.533-0.975-0.876-1.634-0.969-0.661-0.094-1.314 0.080-1.842 0.484l-1.722 1.32-2.609 1.949-1.867-0.744c3.329-1.494 5.656-4.824 5.656-8.69 0-5.257-4.294-9.533-9.572-9.533s-9.572 4.277-9.572 9.533c0 1.905 0.57 3.677 1.54 5.168l-3.8-0.033c-0.002 0-0.004 0-0.007 0-0.012 0-0.021 0.006-0.032 0.007-0.073 0.003-0.144 0.018-0.213 0.043-0.018 0.007-0.036 0.010-0.053 0.018-0.009 0.004-0.018 0.004-0.026 0.009l-4.446 2.195c-0.001 0-0.001 0-0.001 0.001l-2.603 1.252c-0.029 0.012-0.058 0.029-0.087 0.048-1.038 0.691-1.391 2.048-0.823 3.156 0.303 0.59 0.818 1.024 1.452 1.222 0.244 0.076 0.494 0.114 0.741 0.114 0.398 0 0.793-0.098 1.154-0.29l1.908-1.015 3.113-1.608 1.866-0.011-7.482 7.446c-0.001 0.001-0.001 0.001-0.002 0.001l-1.841 1.833c-0.435 0.433-0.674 1.007-0.674 1.619s0.239 1.187 0.674 1.621c0.447 0.444 1.034 0.667 1.621 0.667s1.175-0.223 1.623-0.667l1.807-1.8 2.394-1.787 1.239 1.233-2.422 2.412c-0.001 0.001-0.002 0.001-0.002 0.002l-1.841 1.833c-0.435 0.433-0.674 1.007-0.674 1.619s0.239 1.187 0.674 1.621c0.447 0.444 1.035 0.667 1.622 0.667s1.176-0.223 1.623-0.667l4.787-4.767c0.001-0.001 0.001-0.002 0.001-0.002l1.388-1.375-0.005-0.005c0.009-0.009 0.021-0.012 0.030-0.021l7.103-7.78 4.773 0.679c0.034 0.005 0.069 0.007 0.103 0.007 0.089 0 0.175-0.021 0.257-0.053 0.024-0.009 0.045-0.021 0.068-0.032 0.026-0.013 0.054-0.020 0.079-0.037l4.418-2.933c0.016-0.011 0.025-0.029 0.040-0.040 0.018-0.014 0.040-0.020 0.056-0.035l1.748-1.638c0.91-0.852 1.035-2.249 0.291-3.247zM2.929 24.434c-0.238 0.128-0.509 0.153-0.768 0.071-0.257-0.080-0.465-0.255-0.587-0.492-0.221-0.431-0.093-0.956 0.295-1.24l1.806-0.869 0.617 1.805-1.364 0.725zM7.738 21.921l-2.129 1.1-0.603-1.765 2.787-1.376-0.054 2.040zM28.5 12.818c0 1.263-0.301 2.454-0.824 3.519l-5.749-2.611c-0.060-0.788-0.469-1.478-1.084-1.908l2.013-6.683c3.269 1.040 5.644 4.090 5.644 7.683zM12.29 12.818c0-4.448 3.636-8.067 8.105-8.067 0.348 0 0.688 0.029 1.024 0.072l-1.969 6.536c-0.026-0.001-0.051-0.008-0.079-0.008-1.42 0-2.575 1.151-2.575 2.567s1.155 2.567 2.575 2.567c0.955 0 1.78-0.527 2.225-1.299l5.311 2.413c-1.478 1.989-3.843 3.286-6.513 3.286-4.469 0-8.105-3.619-8.105-8.067zM20.48 13.918c0 0.607-0.497 1.1-1.108 1.1s-1.108-0.493-1.108-1.1c0-0.606 0.497-1.1 1.108-1.1s1.108 0.494 1.108 1.1zM3.389 34.576c-0.325 0.322-0.851 0.321-1.175 0.001-0.156-0.156-0.242-0.362-0.242-0.582s0.086-0.425 0.242-0.579l1.323-1.318 1.17 1.165-1.318 1.313zM7.808 39.71c-0.325 0.322-0.851 0.323-1.176 0.001-0.156-0.156-0.242-0.362-0.242-0.582s0.086-0.425 0.242-0.579l1.324-1.319 1.171 1.165-1.319 1.313zM12.596 34.94c-0.001 0.001-0.002 0.001-0.002 0.001l-2.427 2.42-1.171-1.165 2.424-2.413c0 0 0 0 0-0.001s0.001-0.001 0.002-0.001c0.055-0.055 0.089-0.121 0.123-0.186 0.010-0.019 0.028-0.035 0.036-0.055 0.023-0.056 0.026-0.117 0.035-0.177 0.004-0.034 0.019-0.065 0.019-0.1 0-0.049-0.018-0.097-0.028-0.145-0.009-0.044-0.009-0.089-0.026-0.131-0.028-0.069-0.076-0.13-0.125-0.189-0.014-0.016-0.019-0.037-0.034-0.052 0 0 0 0-0.001 0s-0.001-0.002-0.001-0.003l-2.21-2.2c-0.023-0.024-0.053-0.033-0.080-0.053-0.039-0.030-0.076-0.058-0.12-0.079-0.042-0.021-0.084-0.033-0.128-0.045-0.047-0.013-0.092-0.023-0.142-0.027-0.045-0.003-0.087 0.002-0.131 0.007-0.049 0.006-0.095 0.012-0.143 0.028-0.046 0.015-0.087 0.037-0.13 0.062-0.027 0.015-0.058 0.021-0.084 0.040l-2.438 1.82-1.239-1.234 3.299-3.281 5.996 5.897-1.275 1.264zM21.971 25.292c-0.021-0.003-0.041 0.005-0.062 0.004-0.054-0.003-0.105 0.001-0.158 0.009-0.042 0.007-0.081 0.015-0.121 0.029-0.047 0.016-0.089 0.038-0.133 0.064-0.041 0.025-0.078 0.051-0.114 0.084-0.018 0.015-0.039 0.023-0.055 0.040l-6.46 7.075-5.951-5.853 3.896-3.875c0.287-0.286 0.288-0.75 0.002-1.038-0.144-0.144-0.334-0.216-0.524-0.215v-0.001l-3.051 0.018 0.038-2.21 4.268 0.037c1.739 1.779 4.165 2.889 6.849 2.889 0.601 0 1.188-0.062 1.759-0.169 0.055 0.044 0.109 0.089 0.178 0.117l3.313 1.32 0.455 2.26-4.129-0.587zM27.528 25.537l-0.43-2.142 1.989-1.485 1.302 1.728-2.86 1.899zM32.689 21.644l-1.152 1.079-1.28-1.7 1.143-0.876c0.213-0.164 0.483-0.231 0.747-0.196 0.265 0.037 0.5 0.176 0.66 0.391 0.298 0.401 0.247 0.961-0.117 1.302z"></path>
<path d="M18.703 25.498l-2.947-2.933c-0.285-0.285-0.749-0.285-1.035 0l-2.946 2.933c-0.138 0.139-0.216 0.325-0.216 0.52s0.077 0.382 0.216 0.52l2.946 2.933c0.143 0.142 0.331 0.213 0.518 0.213s0.375-0.071 0.517-0.213l2.947-2.933c0.138-0.138 0.216-0.325 0.216-0.52s-0.078-0.382-0.216-0.52zM15.239 27.917l-1.907-1.899 1.907-1.899 1.907 1.899-1.907 1.899z"></path>
<path d="M23.601 6.972l-0.354 1.424c0.098 0.024 2.389 0.621 2.389 2.955h1.467c-0-2.774-2.29-4.077-3.502-4.379z"></path>
<path d="M27.103 12.818h-1.467v1.467h1.467v-1.467z"></path>
</symbol>
<symbol id="icon-clock" viewBox="0 0 44 44">
<path d="M43.033 21.039c-0.002-11.622-9.426-21.042-21.048-21.039s-21.042 9.426-21.039 21.048c0.002 9.155 5.922 17.258 14.643 20.042 0.083 0.026 0.17 0.040 0.257 0.039 0.166-0 0.328-0.045 0.471-0.129 0.186-0.11 0.324-0.284 0.389-0.49l5.314-16.844c1.453-0.007 2.624-1.191 2.617-2.644s-1.191-2.624-2.644-2.617c-0.391 0.002-0.776 0.092-1.128 0.263l-7.021-7.022c-0.348-0.336-0.903-0.327-1.24 0.021-0.328 0.34-0.328 0.878 0 1.219l7.017 7.025c-0.538 1.099-0.231 2.426 0.738 3.175l-5.064 16.050c-10.007-3.686-15.131-14.787-11.445-24.794s14.787-15.131 24.794-11.445 15.131 14.787 11.445 24.794c-1.801 4.889-5.501 8.843-10.26 10.963l-0.547-2.577c-0.1-0.474-0.566-0.776-1.039-0.676-0.149 0.032-0.288 0.102-0.402 0.204l-5.276 4.71c-0.362 0.322-0.394 0.876-0.072 1.238 0.105 0.117 0.239 0.205 0.389 0.253l6.736 2.15c0.461 0.148 0.955-0.105 1.103-0.567 0.047-0.146 0.055-0.301 0.023-0.45l-0.538-2.529c7.788-3.283 12.845-10.92 12.827-19.373zM21.989 20.162c0.484 0 0.877 0.393 0.877 0.877s-0.393 0.877-0.877 0.877c-0.484 0-0.877-0.392-0.877-0.877s0.392-0.877 0.877-0.877zM24.877 40.6l3.003-2.679 0.829 3.905-3.832-1.227z"></path>
<path d="M21.112 4.379v1.754c0 0.484 0.392 0.877 0.877 0.877s0.877-0.392 0.877-0.877v-1.754c0-0.484-0.393-0.877-0.877-0.877s-0.877 0.393-0.877 0.877z"></path>
<path d="M5.329 20.162c-0.484 0-0.877 0.393-0.877 0.877s0.392 0.877 0.877 0.877h1.754c0.484 0 0.877-0.392 0.877-0.877s-0.392-0.877-0.877-0.877h-1.754z"></path>
<path d="M38.649 21.916c0.484 0 0.877-0.392 0.877-0.877s-0.392-0.877-0.877-0.877h-1.754c-0.484 0-0.877 0.393-0.877 0.877s0.393 0.877 0.877 0.877h1.754z"></path>
</symbol>
<symbol id="icon-diagram" viewBox="0 0 44 44">
<path d="M20.523 20.576h1.466v6.597h-1.466v-6.597z"></path>
<path d="M26.386 23.508h1.466v3.665h-1.466v-3.665z"></path>
<path d="M14.659 25.707h1.466v1.466h-1.466v-1.466z"></path>
<path d="M10.261 24.974h1.466v2.199h-1.466v-2.199z"></path>
<path d="M2.199 38.9h35.182c1.214 0 2.199-0.985 2.199-2.199v-2.932c0-1.214-0.985-2.199-2.199-2.199h-0.733v-18.278l4.163-3.944c0.966 0.476 2.136 0.187 2.768-0.686s0.544-2.074-0.21-2.844-1.953-0.885-2.839-0.272c-0.886 0.613-1.201 1.776-0.746 2.753l-3.137 2.974v-1.691c0-1.214-0.985-2.199-2.199-2.199h-29.318c-1.214 0-2.199 0.985-2.199 2.199v21.988h-0.733c-1.214 0-2.199 0.985-2.199 2.199v2.932c0 1.214 0.985 2.199 2.199 2.199zM41.778 6.65c0.405 0 0.733 0.328 0.733 0.733s-0.328 0.733-0.733 0.733c-0.405 0-0.733-0.328-0.733-0.733s0.328-0.733 0.733-0.733zM4.398 9.582c0-0.405 0.328-0.733 0.733-0.733h29.318c0.405 0 0.733 0.328 0.733 0.733v3.078l-1.466 1.393v-3.005c0-0.405-0.328-0.733-0.733-0.733h-26.386c-0.405 0-0.733 0.328-0.733 0.733v18.324c0 0.405 0.328 0.733 0.733 0.733h26.386c0.405 0 0.733-0.328 0.733-0.733v-13.302l1.466-1.389v16.89h-30.784v-21.988zM10.994 19.11c-0.992-0.003-1.862 0.658-2.126 1.614s0.145 1.97 0.997 2.476c0.852 0.506 1.939 0.379 2.651-0.311l2.548 1.278c0.296 0.148 0.655 0.079 0.875-0.169l5.416-6.093 5.324 3.989c0.286 0.214 0.684 0.191 0.943-0.054l4.627-4.383v11.18h-24.92v-16.858h24.92v3.658l-5.186 4.911-5.369-4.025c-0.305-0.228-0.734-0.185-0.987 0.099l-5.49 6.177-2.052-1.026c0.015-0.088 0.024-0.177 0.028-0.266 0-1.214-0.985-2.199-2.199-2.199zM11.727 21.309c0 0.405-0.328 0.733-0.733 0.733s-0.733-0.328-0.733-0.733c0-0.405 0.328-0.733 0.733-0.733s0.733 0.328 0.733 0.733zM16.125 33.037h7.33v0.733c0 0.405-0.328 0.733-0.733 0.733h-5.864c-0.405 0-0.733-0.328-0.733-0.733v-0.733zM1.466 33.769c0-0.405 0.328-0.733 0.733-0.733h12.46v0.733c0 1.214 0.985 2.199 2.199 2.199h5.864c1.214 0 2.199-0.985 2.199-2.199v-0.733h12.46c0.405 0 0.733 0.328 0.733 0.733v2.932c0 0.405-0.328 0.733-0.733 0.733h-35.182c-0.405 0-0.733-0.328-0.733-0.733v-2.932z"></path>
</symbol>
<symbol id="icon-facebook" viewBox="0 0 44 44">
<path d="M29.328 7.306h4.017v-6.996c-0.693-0.095-3.076-0.31-5.852-0.31-5.791 0-9.759 3.643-9.759 10.338v6.162h-6.391v7.821h6.391v19.679h7.836v-19.677h6.133l0.974-7.821h-7.108v-5.388c0.002-2.261 0.61-3.808 3.76-3.808z"></path>
</symbol>
<symbol id="icon-fifth" viewBox="0 0 59 44">
<path d="M4.453 36.263c0.228 0.259 0.35 0.582 0.343 0.915 0.012 0.217-0.030 0.433-0.122 0.633s-0.232 0.378-0.41 0.522c-0.443 0.306-0.992 0.456-1.546 0.422h-2.718v-5.796h2.663c0.526-0.032 1.047 0.104 1.475 0.385 0.172 0.132 0.308 0.298 0.398 0.487s0.13 0.393 0.119 0.598c0.016 0.32-0.094 0.634-0.309 0.886-0.207 0.23-0.492 0.39-0.81 0.453 0.361 0.060 0.686 0.236 0.918 0.496zM1.265 35.388h1.138c0.259 0.017 0.516-0.051 0.724-0.193 0.085-0.071 0.152-0.159 0.194-0.257s0.059-0.204 0.050-0.309c0.008-0.105-0.009-0.21-0.051-0.308s-0.107-0.186-0.19-0.258c-0.214-0.146-0.479-0.215-0.745-0.195h-1.12v1.521zM3.238 37.611c0.091-0.073 0.163-0.164 0.21-0.266s0.067-0.213 0.059-0.323c0.007-0.112-0.014-0.224-0.062-0.327s-0.121-0.195-0.213-0.268c-0.223-0.151-0.497-0.225-0.773-0.21h-1.194v1.594h1.209c0.272 0.014 0.542-0.057 0.764-0.201z"></path>
<path d="M9.896 38.755l-1.481-2.265h-0.557v2.265h-1.274v-5.796h2.412c0.608-0.039 1.209 0.138 1.679 0.493 0.337 0.315 0.541 0.729 0.573 1.169s-0.107 0.876-0.394 1.23c-0.298 0.312-0.704 0.52-1.15 0.589l1.577 2.316h-1.385zM7.858 35.699h1.042c0.724 0 1.085-0.293 1.085-0.878 0.007-0.119-0.012-0.239-0.058-0.351s-0.117-0.214-0.208-0.3c-0.229-0.174-0.523-0.259-0.819-0.235h-1.055l0.012 1.764z"></path>
<path d="M16.861 37.588h-2.539l-0.448 1.167h-1.336l2.332-5.731h1.444l2.322 5.731h-1.336l-0.439-1.167zM16.52 36.71l-0.928-2.447-0.928 2.447h1.855z"></path>
<path d="M25.578 38.755h-1.265l-2.836-3.942v3.942h-1.262v-5.796h1.262l2.836 3.964v-3.964h1.265v5.796z"></path>
<path d="M32.796 37.367c-0.262 0.438-0.66 0.794-1.144 1.022-0.551 0.255-1.162 0.38-1.778 0.365h-2.251v-5.796h2.251c0.616-0.015 1.226 0.108 1.778 0.357 0.484 0.223 0.883 0.576 1.144 1.011 0.26 0.471 0.396 0.992 0.396 1.521s-0.136 1.049-0.396 1.521zM31.349 37.228c0.361-0.385 0.559-0.876 0.559-1.383s-0.198-0.998-0.559-1.383c-0.436-0.349-1.005-0.526-1.583-0.493h-0.878v3.752h0.878c0.578 0.033 1.147-0.144 1.583-0.493z"></path>
<path d="M17.652 0.718c0 0 16.326 5.643 15.979 13.81v13.812c0 0-16.313-5.646-15.973-13.812l-0.006-13.81z"></path>
<path d="M48.176 25.106c3.083-1.943 6.65-3.146 10.372-3.5v-4.324c-4.29 1.514-7.928 4.259-10.372 7.824z"></path>
<path d="M46.323 26.409c2.524-4.653 6.899-8.243 12.225-10.032v-12.459c0 0-23.25 8.039-22.758 19.668v19.665c0 0 1.036-0.36 2.666-1.034 0-0.629 0-1.263 0.074-1.9 0.481-5.399 3.284-10.402 7.793-13.909z"></path>
<path d="M44.112 33.714c0.122-1.364 0.395-2.713 0.813-4.027-2.807 3.029-4.508 6.787-4.861 10.746-0.034 0.374-0.053 0.748-0.062 1.133 1.32-0.581 2.857-1.305 4.472-2.158-0.412-1.873-0.534-3.79-0.362-5.694z"></path>
<path d="M45.037 33.785c-0.155 1.723-0.058 3.457 0.288 5.156 6.352-3.48 13.49-8.857 13.214-15.356v-0.566c-4.538 0.465-8.784 2.281-12.086 5.17-0.773 1.79-1.25 3.676-1.416 5.595z"></path>
</symbol>
<symbol id="icon-first" viewBox="0 0 38 44">
<path d="M5.617 0l6.561 6.211-12.178-0.007v30.133h31.83v-11.521l6.553 6.204v-31.019h-32.766zM31.542 24.086l-18.602-17.61h18.602v17.61zM25.766 31.929h-20.73v-20.266h1.465v18.894h19.264v1.372zM9.932 40.348l-0.766 1.577-0.766-1.577h-0.642l1.118 2.103v1.225h0.581v-1.225l1.115-2.103h-0.64zM10.894 43.676l0.27-0.775h1.289l0.272 0.775h0.603l-1.259-3.328h-0.519l-1.257 3.328h0.601zM11.808 41.054l0.482 1.38h-0.965l0.482-1.38zM14.857 42.355c-0.084 0.128-0.126 0.269-0.126 0.423 0 0.28 0.098 0.508 0.295 0.683 0.198 0.174 0.462 0.261 0.791 0.261s0.613-0.089 0.85-0.267l0.187 0.222h0.645l-0.489-0.578c0.192-0.262 0.288-0.598 0.288-1.008h-0.482c0 0.224-0.046 0.427-0.139 0.61l-0.642-0.759 0.226-0.165c0.16-0.116 0.275-0.232 0.345-0.347 0.070-0.117 0.105-0.245 0.105-0.384 0-0.21-0.078-0.386-0.233-0.528-0.154-0.143-0.352-0.215-0.594-0.215-0.268 0-0.481 0.076-0.64 0.229-0.159 0.151-0.238 0.357-0.238 0.617 0 0.107 0.025 0.217 0.075 0.331 0.052 0.114 0.142 0.253 0.272 0.416-0.247 0.177-0.412 0.33-0.496 0.459zM16.359 43.091c-0.163 0.125-0.338 0.187-0.526 0.187-0.166 0-0.299-0.048-0.398-0.144s-0.149-0.221-0.149-0.375c0-0.178 0.091-0.337 0.274-0.475l0.071-0.050 0.727 0.857zM15.762 41.617c-0.157-0.193-0.235-0.354-0.235-0.482 0-0.111 0.032-0.203 0.096-0.277s0.15-0.11 0.258-0.11c0.101 0 0.184 0.031 0.249 0.094 0.066 0.061 0.098 0.135 0.098 0.222 0 0.131-0.047 0.238-0.142 0.322l-0.071 0.057-0.254 0.174zM21.179 43.425c0.229-0.2 0.36-0.477 0.393-0.832h-0.576c-0.030 0.238-0.103 0.408-0.217 0.51s-0.285 0.153-0.512 0.153c-0.248 0-0.437-0.094-0.567-0.283-0.128-0.189-0.192-0.463-0.192-0.823v-0.295c0.003-0.355 0.072-0.624 0.206-0.807 0.136-0.184 0.329-0.277 0.581-0.277 0.216 0 0.38 0.053 0.491 0.16 0.113 0.105 0.183 0.277 0.21 0.516h0.576c-0.037-0.364-0.167-0.646-0.391-0.846s-0.52-0.299-0.887-0.299c-0.273 0-0.513 0.065-0.722 0.194-0.207 0.13-0.366 0.314-0.478 0.553s-0.167 0.516-0.167 0.83v0.311c0.005 0.306 0.062 0.575 0.171 0.807s0.265 0.411 0.466 0.537c0.203 0.125 0.437 0.187 0.702 0.187 0.379 0 0.683-0.099 0.912-0.297zM24.578 42.958c0.113-0.247 0.169-0.533 0.169-0.859v-0.185c-0.002-0.325-0.059-0.609-0.174-0.853-0.114-0.245-0.277-0.433-0.487-0.562-0.209-0.131-0.449-0.197-0.72-0.197s-0.512 0.066-0.722 0.199c-0.209 0.131-0.371 0.321-0.487 0.569-0.114 0.248-0.171 0.535-0.171 0.859v0.187c0.002 0.318 0.059 0.6 0.174 0.843 0.116 0.244 0.279 0.432 0.489 0.565 0.212 0.131 0.453 0.196 0.722 0.196 0.273 0 0.513-0.066 0.722-0.196 0.21-0.133 0.372-0.321 0.485-0.567zM23.958 41.077c0.14 0.197 0.21 0.479 0.21 0.848v0.174c0 0.375-0.069 0.66-0.208 0.855-0.137 0.195-0.334 0.293-0.59 0.293-0.253 0-0.451-0.1-0.594-0.299-0.142-0.2-0.213-0.482-0.213-0.848v-0.192c0.003-0.358 0.075-0.635 0.215-0.83 0.142-0.196 0.337-0.295 0.587-0.295 0.256 0 0.453 0.098 0.592 0.295z"></path>
</symbol>
<symbol id="icon-fourth" viewBox="0 0 89 44">
<path d="M13.772 13.727h-0.003c-2.512 0-4.549 1.81-4.549 4.042v0.003c0 2.233 2.037 4.042 4.549 4.042h0.003c2.512 0 4.549-1.81 4.549-4.042v-0.003c0-2.233-2.037-4.042-4.549-4.042z"></path>
<path d="M47.347 12.435c-0.007-3.101-1.396-6.073-3.863-8.266s-5.811-3.428-9.3-3.435v0c-3.49 0.006-6.836 1.24-9.304 3.433s-3.858 5.166-3.865 8.268v17.1c0 0 26.33-2.606 26.333-17.097v-0.003z"></path>
<path d="M0 35.147c0.006 2.158 0.973 4.225 2.69 5.751s4.043 2.386 6.471 2.392c2.427-0.006 4.753-0.866 6.47-2.392s2.684-3.592 2.691-5.75v-11.899c0 0-18.321 1.815-18.321 11.896zM9.161 37.279c-0.474 0-0.938-0.125-1.333-0.359s-0.702-0.567-0.884-0.957c-0.182-0.39-0.229-0.818-0.137-1.232s0.321-0.793 0.657-1.092 0.763-0.501 1.228-0.583c0.465-0.082 0.948-0.040 1.386 0.121s0.813 0.435 1.077 0.785c0.264 0.351 0.404 0.763 0.404 1.184 0.001 0.281-0.060 0.559-0.18 0.818s-0.297 0.496-0.519 0.694c-0.223 0.199-0.488 0.357-0.779 0.464s-0.604 0.163-0.92 0.163v-0.008z"></path>
<path d="M27.676 36.105h-1.768v1.826h-0.921v-4.469h2.91v0.746h-1.989v1.154h1.768v0.743zM32.101 35.798c0 0.44-0.078 0.826-0.233 1.157s-0.379 0.587-0.669 0.767c-0.288 0.18-0.62 0.27-0.994 0.27-0.37 0-0.701-0.089-0.991-0.267s-0.516-0.432-0.675-0.761c-0.16-0.331-0.24-0.712-0.242-1.142v-0.221c0-0.44 0.079-0.827 0.236-1.16 0.16-0.336 0.384-0.592 0.672-0.77 0.291-0.18 0.622-0.27 0.995-0.27s0.703 0.090 0.991 0.27c0.291 0.178 0.515 0.435 0.672 0.77 0.16 0.333 0.239 0.719 0.239 1.157v0.2zM31.168 35.595c0-0.468-0.084-0.825-0.252-1.068s-0.407-0.365-0.718-0.365c-0.309 0-0.547 0.121-0.715 0.362-0.168 0.239-0.253 0.591-0.255 1.056v0.218c0 0.456 0.084 0.81 0.252 1.062s0.409 0.378 0.724 0.378c0.309 0 0.546-0.121 0.712-0.362 0.166-0.243 0.25-0.597 0.252-1.062v-0.218zM35.088 36.759c0-0.174-0.061-0.307-0.184-0.399-0.123-0.094-0.344-0.192-0.663-0.295-0.319-0.104-0.572-0.207-0.758-0.307-0.507-0.274-0.761-0.644-0.761-1.108 0-0.241 0.067-0.456 0.203-0.645 0.137-0.19 0.333-0.339 0.586-0.445 0.256-0.106 0.542-0.16 0.859-0.16 0.319 0 0.604 0.058 0.853 0.175 0.25 0.115 0.443 0.277 0.58 0.488 0.139 0.211 0.209 0.45 0.209 0.718h-0.921c0-0.205-0.064-0.363-0.193-0.476-0.129-0.115-0.31-0.172-0.543-0.172-0.225 0-0.4 0.048-0.525 0.144-0.125 0.094-0.187 0.219-0.187 0.374 0 0.145 0.073 0.267 0.218 0.365 0.147 0.098 0.363 0.19 0.648 0.276 0.524 0.158 0.905 0.353 1.145 0.586s0.359 0.524 0.359 0.872c0 0.387-0.146 0.691-0.439 0.912-0.292 0.219-0.686 0.328-1.182 0.328-0.344 0-0.657-0.062-0.939-0.187-0.282-0.127-0.498-0.3-0.648-0.519-0.147-0.219-0.221-0.473-0.221-0.761h0.924c0 0.493 0.295 0.74 0.884 0.74 0.219 0 0.39-0.044 0.513-0.132 0.123-0.090 0.184-0.215 0.184-0.374zM40.002 34.208h-1.369v3.723h-0.921v-3.723h-1.35v-0.746h3.64v0.746zM43.218 35.994h-1.768v1.197h2.075v0.74h-2.996v-4.469h2.989v0.746h-2.069v1.065h1.768v0.721zM45.719 36.295h-0.734v1.636h-0.921v-4.469h1.66c0.528 0 0.935 0.118 1.222 0.353s0.43 0.568 0.43 0.997c0 0.305-0.066 0.56-0.199 0.764-0.131 0.203-0.33 0.364-0.599 0.485l0.967 1.826v0.043h-0.988l-0.838-1.636zM44.986 35.549h0.743c0.231 0 0.41-0.058 0.537-0.175 0.127-0.119 0.19-0.281 0.19-0.488 0-0.211-0.060-0.377-0.181-0.497-0.119-0.121-0.302-0.181-0.549-0.181h-0.74v1.341zM50.566 36.357v1.574h-0.921v-4.469h1.743c0.336 0 0.63 0.061 0.884 0.184 0.256 0.123 0.452 0.298 0.589 0.525 0.137 0.225 0.206 0.482 0.206 0.77 0 0.438-0.15 0.784-0.451 1.037-0.299 0.252-0.713 0.378-1.243 0.378h-0.807zM50.566 35.611h0.822c0.244 0 0.429-0.057 0.556-0.172 0.129-0.115 0.193-0.278 0.193-0.491 0-0.219-0.065-0.396-0.193-0.531s-0.307-0.205-0.534-0.209h-0.844v1.403zM56.391 35.994h-1.768v1.197h2.075v0.74h-2.996v-4.469h2.989v0.746h-2.069v1.065h1.768v0.721zM60.663 34.208h-1.369v3.723h-0.921v-3.723h-1.35v-0.746h3.64v0.746zM63.88 35.994h-1.768v1.197h2.075v0.74h-2.995v-4.469h2.989v0.746h-2.069v1.065h1.768v0.721zM66.381 36.295h-0.734v1.636h-0.921v-4.469h1.66c0.528 0 0.935 0.118 1.222 0.353s0.43 0.568 0.43 0.997c0 0.305-0.067 0.56-0.199 0.764-0.131 0.203-0.331 0.364-0.599 0.485l0.967 1.826v0.043h-0.988l-0.838-1.636zM65.648 35.549h0.743c0.231 0 0.41-0.058 0.537-0.175 0.127-0.119 0.19-0.281 0.19-0.488 0-0.211-0.060-0.377-0.181-0.497-0.119-0.121-0.302-0.181-0.549-0.181h-0.74v1.341zM71.059 36.759c0-0.174-0.061-0.307-0.184-0.399-0.123-0.094-0.344-0.192-0.663-0.295-0.319-0.104-0.572-0.207-0.758-0.307-0.507-0.274-0.761-0.644-0.761-1.108 0-0.241 0.068-0.456 0.203-0.645 0.137-0.19 0.332-0.339 0.586-0.445 0.256-0.106 0.542-0.16 0.859-0.16 0.319 0 0.604 0.058 0.853 0.175 0.25 0.115 0.443 0.277 0.58 0.488 0.139 0.211 0.209 0.45 0.209 0.718h-0.921c0-0.205-0.064-0.363-0.193-0.476-0.129-0.115-0.31-0.172-0.543-0.172-0.225 0-0.4 0.048-0.525 0.144-0.125 0.094-0.187 0.219-0.187 0.374 0 0.145 0.073 0.267 0.218 0.365 0.147 0.098 0.363 0.19 0.648 0.276 0.524 0.158 0.905 0.353 1.145 0.586s0.359 0.524 0.359 0.872c0 0.387-0.146 0.691-0.439 0.912-0.293 0.219-0.687 0.328-1.182 0.328-0.344 0-0.657-0.062-0.939-0.187-0.282-0.127-0.498-0.3-0.648-0.519-0.147-0.219-0.221-0.473-0.221-0.761h0.924c0 0.493 0.295 0.74 0.884 0.74 0.219 0 0.39-0.044 0.512-0.132 0.123-0.090 0.184-0.215 0.184-0.374z"></path>
</symbol>
<symbol id="icon-imail" viewBox="0 0 59 44">
<path d="M53.167 0h-47.667c-3.033 0-5.5 2.467-5.5 5.5v33c0 3.033 2.467 5.5 5.5 5.5h47.667c3.033 0 5.5-2.467 5.5-5.5v-33c0-3.033-2.467-5.5-5.5-5.5zM53.167 3.667c0.249 0 0.486 0.052 0.703 0.142l-24.536 21.265-24.536-21.265c0.217-0.090 0.454-0.142 0.703-0.142h47.667zM53.167 40.333h-47.667c-1.012 0-1.833-0.822-1.833-1.833v-30.818l24.465 21.203c0.346 0.299 0.773 0.448 1.201 0.448s0.856-0.149 1.201-0.448l24.465-21.203v30.818c0 1.012-0.822 1.833-1.833 1.833z"></path>
</symbol>
<symbol id="icon-instagram" viewBox="0 0 44 44">
<path d="M43.957 12.936c-0.103-2.338-0.481-3.945-1.023-5.338-0.559-1.478-1.418-2.802-2.545-3.902-1.1-1.117-2.433-1.986-3.894-2.536-1.401-0.542-3-0.92-5.337-1.023-2.355-0.112-3.103-0.138-9.077-0.138s-6.722 0.026-9.068 0.129c-2.338 0.103-3.945 0.481-5.338 1.023-1.479 0.559-2.802 1.418-3.903 2.544-1.117 1.1-1.985 2.433-2.536 3.894-0.542 1.401-0.92 3-1.023 5.338-0.112 2.355-0.138 3.103-0.138 9.077s0.026 6.721 0.129 9.068c0.103 2.338 0.481 3.945 1.023 5.338 0.559 1.478 1.427 2.802 2.544 3.902 1.1 1.117 2.433 1.986 3.894 2.536 1.401 0.541 3 0.92 5.338 1.023 2.346 0.103 3.094 0.129 9.068 0.129s6.721-0.026 9.068-0.129c2.338-0.103 3.945-0.481 5.337-1.023 2.957-1.143 5.295-3.481 6.438-6.438 0.541-1.401 0.92-3 1.023-5.338 0.103-2.347 0.129-3.095 0.129-9.068s-0.009-6.722-0.112-9.068zM39.995 30.901c-0.095 2.149-0.456 3.309-0.756 4.083-0.739 1.917-2.261 3.438-4.178 4.178-0.774 0.301-1.942 0.662-4.083 0.756-2.321 0.103-3.017 0.129-8.888 0.129s-6.576-0.026-8.888-0.129c-2.149-0.094-3.309-0.455-4.083-0.756-0.954-0.352-1.822-0.911-2.527-1.642-0.731-0.713-1.289-1.573-1.642-2.527-0.301-0.774-0.662-1.943-0.756-4.083-0.103-2.321-0.129-3.017-0.129-8.888s0.026-6.575 0.129-8.887c0.094-2.149 0.455-3.309 0.756-4.083 0.353-0.954 0.911-1.822 1.651-2.527 0.713-0.731 1.573-1.289 2.527-1.642 0.774-0.301 1.943-0.662 4.083-0.756 2.321-0.103 3.017-0.129 8.888-0.129 5.88 0 6.575 0.026 8.888 0.129 2.149 0.095 3.309 0.456 4.083 0.756 0.954 0.352 1.822 0.911 2.527 1.642 0.73 0.713 1.289 1.573 1.642 2.527 0.301 0.774 0.662 1.942 0.756 4.083 0.103 2.321 0.129 3.017 0.129 8.887s-0.026 6.558-0.129 8.879z"></path>
<path d="M22.082 10.701c-6.24 0-11.303 5.063-11.303 11.303s5.063 11.303 11.303 11.303c6.241 0 11.303-5.062 11.303-11.303s-5.063-11.303-11.303-11.303zM22.082 29.336c-4.048 0-7.332-3.283-7.332-7.332s3.284-7.332 7.332-7.332c4.049 0 7.332 3.283 7.332 7.332s-3.283 7.332-7.332 7.332z"></path>
<path d="M36.471 10.254c0 1.457-1.182 2.639-2.639 2.639s-2.639-1.182-2.639-2.639c0-1.458 1.181-2.639 2.639-2.639s2.639 1.181 2.639 2.639z"></path>
</symbol>
<symbol id="icon-linkedin" viewBox="0 0 44 44">
<path d="M43.989 44v-0.002h0.011v-16.137c0-7.894-1.7-13.975-10.928-13.975-4.437 0-7.414 2.435-8.629 4.743h-0.128v-4.006h-8.75v29.375h9.112v-14.546c0-3.83 0.726-7.533 5.469-7.533 4.673 0 4.743 4.371 4.743 7.779v14.302h9.102z"></path>
<path d="M0.726 14.624h9.123v29.376h-9.123v-29.376z"></path>
<path d="M5.284 0c-2.917 0-5.284 2.367-5.284 5.284s2.367 5.333 5.284 5.333c2.917 0 5.284-2.416 5.284-5.333-0.002-2.917-2.369-5.284-5.284-5.284v0z"></path>
</symbol>
<symbol id="icon-second" viewBox="0 0 34 44">
<path d="M14.481 2.483h-0.116c-0.178-0.011-0.355-0.015-0.533-0.019v0h-0.385c-0.336 0-0.679 0.009-1.019 0.026-0.026-0.002-0.051-0.002-0.077 0-3.084 0.175-6.105 0.945-8.898 2.27l-0.366 0.176v18.735l0.856-0.29c0.751-0.258 1.552-0.491 2.38-0.706 2.239-0.575 4.539-0.88 6.85-0.91v2.461c-0.306 0.002-0.604 0.011-0.901 0.026h-0.071c-1.779 0.098-3.544 0.369-5.27 0.809-2.187 0.547-4.296 1.369-6.278 2.446v-24.028c2.059-1.201 4.276-2.103 6.586-2.679 2.028-0.524 4.113-0.793 6.208-0.8h0.362c0.432 0.011 0.854 0.030 1.25 0.060 1.043 0.073 2.078 0.238 3.093 0.493v2.423c-0.986-0.23-1.988-0.381-2.997-0.452-0.020-0.002-0.041-0.003-0.061-0.005-0.209-0.018-0.418-0.036-0.613-0.036zM18.745 4.96c0.537 0.041 1.094 0.060 1.657 0.060 2.201-0.008 4.393-0.289 6.526-0.837 2.186-0.55 4.294-1.372 6.276-2.449v23.6c-2.060 1.2-4.278 2.102-6.589 2.679-2.029 0.522-4.114 0.79-6.208 0.798-1.587 0.013-3.169-0.174-4.709-0.555v-23.753c0.364 0.084 0.738 0.161 1.119 0.226 0.625 0.105 1.284 0.183 1.927 0.23zM30.755 5.143l-0.856 0.288c-0.788 0.265-1.582 0.501-2.38 0.712-2.325 0.597-4.714 0.904-7.113 0.912-0.559 0-1.072-0.015-1.569-0.047l-0.683-0.045v19.273l0.586 0.052c0.544 0.047 1.105 0.071 1.67 0.071 1.89-0.008 3.771-0.252 5.602-0.725 1.507-0.378 2.973-0.905 4.377-1.573l0.366-0.176v-18.741z"></path>
<path d="M2.316 35.718c-0.123-0.128-0.271-0.228-0.436-0.294s-0.34-0.097-0.517-0.091c-0.188-0.003-0.375 0.033-0.55 0.103-0.16 0.064-0.306 0.16-0.428 0.282-0.121 0.123-0.215 0.269-0.276 0.43-0.067 0.169-0.101 0.35-0.098 0.531v3.21c-0.008 0.226 0.035 0.451 0.126 0.658 0.076 0.164 0.185 0.311 0.321 0.43 0.128 0.108 0.279 0.186 0.441 0.228 0.156 0.044 0.317 0.066 0.479 0.067 0.179 0.002 0.356-0.036 0.518-0.112 0.16-0.070 0.306-0.171 0.428-0.297 0.119-0.125 0.214-0.271 0.28-0.43 0.069-0.162 0.104-0.336 0.103-0.512v-0.359h-0.839v0.286c0.002 0.098-0.014 0.195-0.049 0.286-0.027 0.068-0.069 0.13-0.122 0.181-0.052 0.042-0.112 0.073-0.176 0.092-0.057 0.019-0.116 0.029-0.176 0.030-0.075 0.009-0.151-0.003-0.22-0.033s-0.129-0.078-0.174-0.139c-0.079-0.129-0.118-0.279-0.111-0.43v-2.993c-0.005-0.166 0.030-0.331 0.103-0.48 0.044-0.068 0.105-0.122 0.178-0.156s0.153-0.047 0.233-0.038c0.072-0.003 0.144 0.013 0.209 0.044s0.122 0.078 0.165 0.137c0.094 0.123 0.143 0.275 0.139 0.43v0.278h0.831v-0.327c0.002-0.192-0.033-0.383-0.103-0.562-0.062-0.168-0.157-0.322-0.28-0.452z"></path>
<path d="M7.301 35.682c-0.268-0.226-0.605-0.351-0.955-0.353-0.171 0.001-0.34 0.031-0.501 0.090-0.163 0.058-0.313 0.147-0.443 0.262-0.139 0.125-0.25 0.278-0.325 0.45-0.085 0.196-0.126 0.408-0.122 0.622v3.079c-0.006 0.217 0.036 0.432 0.122 0.63 0.076 0.166 0.187 0.312 0.325 0.43 0.128 0.119 0.279 0.211 0.443 0.271 0.16 0.059 0.33 0.090 0.501 0.090 0.171-0 0.34-0.031 0.501-0.090 0.167-0.061 0.321-0.153 0.454-0.271 0.134-0.12 0.242-0.267 0.317-0.43 0.086-0.199 0.128-0.414 0.122-0.63v-3.079c0.004-0.214-0.037-0.426-0.122-0.622-0.075-0.17-0.182-0.323-0.317-0.45zM6.91 39.832c0.007 0.082-0.004 0.165-0.033 0.242s-0.075 0.147-0.134 0.204c-0.111 0.093-0.251 0.144-0.395 0.144s-0.284-0.051-0.395-0.144c-0.059-0.057-0.105-0.127-0.134-0.204s-0.040-0.16-0.033-0.242v-3.079c-0.007-0.082 0.004-0.165 0.033-0.242s0.075-0.147 0.134-0.204c0.111-0.093 0.251-0.144 0.395-0.144s0.284 0.051 0.395 0.144c0.059 0.057 0.105 0.127 0.134 0.204s0.040 0.16 0.033 0.242v3.079z"></path>
<path d="M13.849 41.207v-5.829h-0.807l-1.060 3.085h-0.015l-1.068-3.085h-0.798v5.829h0.833v-3.546h0.015l0.816 2.507h0.415l0.822-2.507h0.015v3.546h0.833z"></path>
<path d="M18.58 35.787c-0.128-0.144-0.29-0.253-0.471-0.318-0.195-0.063-0.399-0.094-0.604-0.090h-1.237v5.829h0.83v-2.276h0.428c0.259 0.012 0.517-0.043 0.749-0.159 0.189-0.105 0.346-0.259 0.456-0.445 0.096-0.155 0.161-0.328 0.19-0.508 0.033-0.219 0.048-0.441 0.045-0.663 0.008-0.28-0.019-0.56-0.081-0.833-0.055-0.202-0.161-0.386-0.306-0.536zM18.152 37.564c-0.004 0.106-0.030 0.209-0.077 0.303-0.047 0.090-0.123 0.161-0.214 0.204-0.123 0.055-0.257 0.080-0.392 0.073h-0.379v-1.982h0.428c0.129-0.006 0.257 0.019 0.375 0.073 0.086 0.049 0.154 0.125 0.195 0.215 0.045 0.102 0.070 0.213 0.073 0.325 0 0.123 0 0.252 0 0.387s0.009 0.275 0 0.4h-0.009z"></path>
<path d="M22.514 35.378h-0.681l-1.284 5.829h0.831l0.244-1.252h1.132l0.244 1.252h0.831l-1.316-5.829zM21.748 39.161l0.409-2.113h0.015l0.407 2.113h-0.831z"></path>
<path d="M27.881 38.89h-0.015l-1.254-3.512h-0.798v5.829h0.831v-3.505h0.017l1.269 3.505h0.781v-5.829h-0.831v3.512z"></path>
<path d="M32.956 35.378l-0.668 2.317h-0.017l-0.668-2.317h-0.88l1.141 3.365v2.464h0.831v-2.464l1.141-3.365h-0.88z"></path>
<path d="M0 42.853h0.4v1.123h0.272v-1.123h0.398v-0.23h-1.070v0.23z"></path>
<path d="M3.365 42.623l-0.524 1.353h0.289l0.111-0.308h0.539l0.116 0.308h0.295l-0.537-1.353h-0.289zM3.322 43.44l0.184-0.501 0.184 0.501h-0.368z"></path>
<path d="M6.691 43.477h0.313v0.174c-0.091 0.073-0.204 0.113-0.321 0.114-0.055 0.003-0.109-0.007-0.159-0.030s-0.094-0.057-0.128-0.1c-0.072-0.103-0.107-0.227-0.101-0.353 0-0.301 0.131-0.452 0.39-0.452 0.068-0.007 0.137 0.011 0.193 0.051s0.096 0.098 0.113 0.164l0.268-0.052c-0.058-0.265-0.248-0.398-0.574-0.398-0.174-0.005-0.343 0.058-0.473 0.174-0.068 0.067-0.121 0.149-0.155 0.239s-0.047 0.186-0.040 0.282c-0.008 0.185 0.054 0.367 0.173 0.508 0.066 0.068 0.147 0.121 0.235 0.156s0.184 0.049 0.278 0.042c0.212 0.006 0.417-0.071 0.574-0.215v-0.534h-0.587v0.228z"></path>
<path d="M10.088 42.623h-0.274v1.353h0.948v-0.23h-0.674v-1.123z"></path>
<path d="M12.961 42.623h-0.274v1.353h0.274v-1.353z"></path>
<path d="M15.769 43.527l-0.554-0.904h-0.265v1.353h0.255v-0.884l0.544 0.884h0.272v-1.353h-0.25v0.904z"></path>
<path d="M18.308 43.38h0.674v-0.23h-0.674v-0.297h0.726v-0.23h-1v1.353h1.027v-0.23h-0.753v-0.366z"></path>
<path d="M24.464 43.156h-0.533v-0.534h-0.272v1.353h0.272v-0.592h0.533v0.592h0.272v-1.353h-0.272v0.534z"></path>
<path d="M27.018 43.38h0.676v-0.23h-0.676v-0.297h0.728v-0.23h-1v1.353h1.025v-0.23h-0.753v-0.366z"></path>
<path d="M30.481 43.38c0.235-0.037 0.355-0.161 0.355-0.377 0.007-0.058-0.002-0.116-0.025-0.169s-0.061-0.099-0.108-0.132c-0.123-0.062-0.259-0.089-0.396-0.080h-0.574v1.353h0.272v-0.566h0.053c0.058-0.004 0.116 0.007 0.169 0.030 0.040 0.025 0.073 0.058 0.096 0.099l0.295 0.43h0.325l-0.165-0.265c-0.073-0.131-0.176-0.242-0.3-0.325zM30.207 43.193h-0.201v-0.34h0.214c0.093-0.008 0.187 0.003 0.276 0.032 0.020 0.018 0.035 0.039 0.046 0.064s0.015 0.051 0.014 0.077c-0.001 0.026-0.008 0.052-0.021 0.076s-0.030 0.043-0.051 0.059c-0.089 0.027-0.183 0.038-0.276 0.032z"></path>
<path d="M33.093 43.38h0.674v-0.23h-0.674v-0.297h0.728v-0.23h-1.002v1.353h1.027v-0.23h-0.753v-0.366z"></path>
</symbol>
<symbol id="icon-sixth" viewBox="0 0 92 44">
<path d="M46.371 20.932c-0.433-0.577-0.641-1.258-0.591-1.944v-2.819c0-0.864 0.196-1.521 0.588-1.97s1.065-0.673 2.020-0.671c0.897 0 1.534 0.191 1.91 0.574 0.411 0.488 0.61 1.085 0.565 1.686v0.663h-1.604v-0.671c0.006-0.22-0.010-0.439-0.047-0.657-0.023-0.149-0.104-0.286-0.229-0.39-0.165-0.112-0.372-0.166-0.581-0.152-0.22-0.014-0.438 0.043-0.611 0.161-0.14 0.115-0.233 0.266-0.266 0.43-0.046 0.23-0.067 0.463-0.063 0.697v3.421c-0.025 0.33 0.045 0.66 0.206 0.961 0.080 0.102 0.191 0.182 0.32 0.233s0.273 0.069 0.414 0.054c0.206 0.015 0.409-0.041 0.568-0.155 0.131-0.112 0.215-0.258 0.239-0.416 0.037-0.227 0.054-0.456 0.050-0.685v-0.694h1.604v0.634c0.045 0.627-0.15 1.25-0.555 1.772-0.369 0.419-0.997 0.628-1.92 0.628s-1.621-0.224-2.016-0.688z"></path>
<path d="M53.051 20.961c-0.405-0.439-0.608-1.078-0.608-1.924v-2.965c0-0.837 0.203-1.471 0.608-1.901s1.083-0.644 2.033-0.642c0.943 0 1.618 0.214 2.023 0.642 0.405 0.43 0.611 1.064 0.611 1.901v2.965c0 0.837-0.206 1.48-0.618 1.921s-1.083 0.663-2.016 0.663c-0.933 0-1.624-0.224-2.033-0.66zM55.831 20.25c0.145-0.275 0.211-0.576 0.193-0.878v-3.631c0.019-0.296-0.046-0.591-0.189-0.86-0.081-0.104-0.195-0.186-0.328-0.236s-0.279-0.068-0.423-0.050c-0.144-0.017-0.291 0-0.424 0.051s-0.247 0.132-0.33 0.236c-0.146 0.269-0.212 0.564-0.193 0.86v3.648c-0.020 0.302 0.046 0.603 0.193 0.878 0.093 0.093 0.209 0.167 0.338 0.217s0.27 0.077 0.412 0.077c0.142 0 0.283-0.026 0.412-0.077s0.245-0.125 0.338-0.217v-0.017z"></path>
<path d="M59.648 13.614h1.727l1.299 5.471 1.329-5.471h1.681l0.169 7.897h-1.242l-0.133-5.488-1.282 5.488h-0.997l-1.329-5.509-0.123 5.509h-1.256l0.156-7.897z"></path>
<path d="M67.79 13.614h2.691c1.55 0 2.325 0.747 2.325 2.242 0 1.432-0.816 2.147-2.448 2.145h-0.917v3.51h-1.661l0.010-7.897zM70.088 16.989c0.164 0.018 0.331 0.005 0.488-0.038s0.303-0.115 0.425-0.211c0.19-0.267 0.274-0.58 0.239-0.892 0.009-0.241-0.018-0.482-0.080-0.717-0.024-0.079-0.065-0.152-0.122-0.217s-0.128-0.119-0.21-0.159c-0.231-0.095-0.485-0.139-0.741-0.126h-0.644v2.36h0.644z"></path>
<path d="M75.2 13.614h1.784l1.83 7.897h-1.548l-0.362-1.821h-1.591l-0.372 1.821h-1.571l1.83-7.897zM76.725 18.776l-0.621-3.315-0.621 3.315h1.242z"></path>
<path d="M80.292 13.614h1.163l2.226 4.505v-4.505h1.378v7.897h-1.106l-2.239-4.703v4.703h-1.425l0.003-7.897z"></path>
<path d="M88.288 18.5l-1.85-4.875h1.558l1.129 3.132 1.060-3.132h1.525l-1.827 4.875v3.011h-1.594v-3.011z"></path>
<path d="M48.936 24.964v0.413h-1.355v3.209h-0.568v-3.209h-1.362v-0.413h3.285z"></path>
<path d="M53.184 28.587h-0.439c-0.044 0.002-0.088-0.010-0.123-0.034-0.033-0.021-0.058-0.050-0.073-0.083l-0.392-0.86h-1.88l-0.392 0.86c-0.011 0.036-0.032 0.069-0.060 0.097-0.035 0.024-0.078 0.036-0.123 0.034h-0.439l1.661-3.622h0.578l1.681 3.607zM50.433 27.242h1.568l-0.664-1.474c-0.049-0.111-0.090-0.225-0.123-0.341-0.023 0.069-0.043 0.135-0.063 0.192l-0.060 0.152-0.658 1.471z"></path>
<path d="M56.047 28.231c0.104 0.005 0.208 0.005 0.312 0 0.090-0.008 0.179-0.022 0.266-0.043 0.081-0.017 0.161-0.039 0.239-0.066 0.073-0.026 0.146-0.057 0.223-0.089v-0.815h-0.664c-0.016 0.001-0.033-0.001-0.048-0.006s-0.030-0.013-0.041-0.022c-0.011-0.008-0.020-0.018-0.025-0.030s-0.009-0.024-0.008-0.036v-0.278h1.289v1.388c-0.105 0.065-0.216 0.123-0.332 0.172-0.118 0.050-0.242 0.092-0.369 0.123-0.136 0.035-0.275 0.059-0.415 0.075-0.161 0.015-0.323 0.023-0.485 0.023-0.286 0.002-0.571-0.044-0.837-0.135-0.249-0.086-0.475-0.215-0.664-0.379-0.185-0.165-0.33-0.36-0.428-0.574-0.105-0.24-0.157-0.495-0.153-0.751-0.004-0.258 0.047-0.515 0.149-0.757 0.096-0.215 0.241-0.41 0.428-0.574 0.19-0.163 0.416-0.291 0.664-0.376 0.284-0.092 0.586-0.138 0.89-0.135 0.155-0 0.309 0.010 0.462 0.032 0.135 0.019 0.268 0.050 0.395 0.092 0.116 0.038 0.228 0.086 0.332 0.143 0.102 0.057 0.198 0.12 0.289 0.189l-0.159 0.224c-0.013 0.020-0.031 0.038-0.054 0.050s-0.049 0.019-0.076 0.019c-0.037-0.001-0.072-0.011-0.103-0.029-0.050-0.023-0.103-0.052-0.163-0.086-0.071-0.038-0.145-0.071-0.223-0.097-0.099-0.034-0.201-0.061-0.306-0.080-0.139-0.022-0.28-0.033-0.422-0.031-0.219-0.002-0.437 0.032-0.641 0.1-0.185 0.064-0.352 0.162-0.488 0.287-0.138 0.13-0.243 0.284-0.309 0.45-0.148 0.392-0.148 0.815 0 1.207 0.073 0.17 0.186 0.326 0.332 0.456 0.136 0.124 0.302 0.222 0.485 0.287 0.211 0.063 0.435 0.087 0.658 0.072z"></path>
<path d="M61.342 28.173h1.814v0.413h-2.368v-3.622h0.568l-0.013 3.209z"></path>
<path d="M65.043 28.586h-0.568v-3.622h0.568v3.622z"></path>
<path d="M67.155 24.981c0.034 0.017 0.063 0.039 0.086 0.066l2.428 2.73c-0.003-0.043-0.003-0.086 0-0.129 0-0.040 0-0.080 0-0.118v-2.581h0.495v3.637h-0.286c-0.042 0.003-0.085-0.004-0.123-0.020-0.035-0.018-0.065-0.041-0.090-0.069l-2.425-2.727c0 0.043 0 0.083 0 0.123s0 0.077 0 0.112v2.581h-0.475v-3.622h0.296c0.032 0 0.064 0.006 0.093 0.017z"></path>
<path d="M74.347 24.964v0.399h-2.013v1.196h1.631v0.384h-1.631v1.236h2.013v0.399h-2.598v-3.613h2.598z"></path>
<path d="M14.825 2.597l25.222 6.183v21.666l-25.222-6.18v-21.668zM13.207 0.75v24.568l28.454 6.977v-24.565l-28.454-6.98z"></path>
<path d="M28.457 43.699l-28.457-6.983v-24.565l28.457 6.98v24.568z"></path>
<path d="M13.679 2.318l24.893 6.105-10.586 9.142-24.896-6.108 10.59-9.139zM13.207 0.75l-13.207 11.402 28.457 6.98 13.204-11.402-28.454-6.98z"></path>
<path d="M30.058 42.317l11.603-10.020-11.603-2.847v12.867z"></path>
</symbol>
<symbol id="icon-smartphone" viewBox="0 0 28 44">
<path d="M23.375 0h-19.25c-2.275 0-4.125 1.85-4.125 4.125v35.75c0 2.275 1.85 4.125 4.125 4.125h19.25c2.275 0 4.125-1.85 4.125-4.125v-35.75c0-2.275-1.85-4.125-4.125-4.125zM4.125 2.75h19.25c0.759 0 1.375 0.616 1.375 1.375v28.875h-22v-28.875c0-0.759 0.616-1.375 1.375-1.375zM23.375 41.25h-19.25c-0.759 0-1.375-0.616-1.375-1.375v-4.125h22v4.125c0 0.759-0.616 1.375-1.375 1.375z"></path>
<path d="M6.472 37.782c0.537 0.502 0.537 1.315 0 1.816s-1.408 0.502-1.945 0c-0.537-0.501-0.537-1.314 0-1.816s1.408-0.501 1.945 0z"></path>
</symbol>
<symbol id="icon-third" viewBox="0 0 47 44">
<path d="M7.759 43.059c0.017 0 0.033 0.004 0.048 0.010s0.029 0.015 0.040 0.025l0.229 0.218c-0.177 0.177-0.397 0.318-0.643 0.415-0.288 0.105-0.599 0.156-0.911 0.149-0.294 0.005-0.585-0.042-0.857-0.139-0.245-0.089-0.465-0.223-0.646-0.392-0.184-0.176-0.326-0.382-0.417-0.606-0.1-0.25-0.149-0.513-0.146-0.777-0.004-0.266 0.049-0.53 0.157-0.779 0.1-0.225 0.25-0.431 0.443-0.606 0.195-0.171 0.428-0.305 0.686-0.395 0.281-0.095 0.581-0.142 0.883-0.139 0.28-0.006 0.559 0.037 0.82 0.127 0.226 0.085 0.434 0.204 0.614 0.35l-0.191 0.233c-0.013 0.016-0.030 0.031-0.049 0.042-0.023 0.013-0.050 0.020-0.077 0.017-0.030-0.002-0.058-0.010-0.083-0.025l-0.103-0.062-0.143-0.079c-0.062-0.029-0.126-0.055-0.191-0.077-0.085-0.026-0.172-0.047-0.26-0.062-0.112-0.018-0.226-0.026-0.34-0.025-0.217-0.002-0.433 0.033-0.634 0.104-0.188 0.066-0.357 0.166-0.497 0.293-0.142 0.135-0.252 0.294-0.323 0.467-0.080 0.198-0.12 0.406-0.117 0.615-0.003 0.213 0.036 0.425 0.117 0.626 0.070 0.171 0.177 0.329 0.317 0.464 0.131 0.126 0.293 0.225 0.474 0.288 0.186 0.067 0.387 0.101 0.588 0.099 0.117 0.002 0.233-0.005 0.348-0.020 0.188-0.020 0.369-0.077 0.528-0.166 0.080-0.046 0.155-0.097 0.226-0.154 0.029-0.024 0.068-0.038 0.109-0.040z"></path>
<path d="M14.357 41.961c0.004 0.263-0.049 0.525-0.154 0.772-0.093 0.224-0.24 0.428-0.43 0.599s-0.421 0.305-0.675 0.393c-0.559 0.185-1.177 0.185-1.737 0-0.253-0.090-0.481-0.224-0.671-0.395-0.19-0.174-0.338-0.38-0.434-0.606-0.206-0.5-0.206-1.046 0-1.546 0.097-0.226 0.245-0.432 0.434-0.608 0.191-0.165 0.42-0.294 0.671-0.38 0.558-0.189 1.178-0.189 1.737 0 0.254 0.090 0.483 0.224 0.674 0.395 0.188 0.172 0.335 0.376 0.431 0.598 0.106 0.248 0.158 0.512 0.154 0.777zM13.757 41.961c0.005-0.211-0.032-0.42-0.109-0.621-0.064-0.171-0.168-0.329-0.306-0.464-0.134-0.127-0.299-0.228-0.483-0.293-0.406-0.136-0.856-0.136-1.262 0-0.184 0.065-0.349 0.165-0.483 0.293-0.139 0.134-0.245 0.292-0.308 0.464-0.145 0.404-0.145 0.837 0 1.241 0.064 0.172 0.17 0.33 0.308 0.464 0.134 0.127 0.299 0.226 0.483 0.29 0.407 0.132 0.855 0.132 1.262 0 0.184-0.064 0.349-0.164 0.483-0.29 0.137-0.135 0.241-0.293 0.306-0.464 0.077-0.2 0.113-0.41 0.109-0.621z"></path>
<path d="M18.859 42.612l0.060 0.139c0.023-0.050 0.043-0.094 0.066-0.139 0.022-0.047 0.047-0.092 0.074-0.137l1.46-2.305c0.029-0.040 0.054-0.064 0.083-0.072 0.039-0.010 0.079-0.014 0.12-0.012h0.431v3.75h-0.511v-2.757c0-0.035 0-0.074 0-0.117-0.003-0.043-0.003-0.086 0-0.129l-1.468 2.338c-0.019 0.035-0.049 0.065-0.086 0.085s-0.081 0.032-0.125 0.031h-0.083c-0.044 0.001-0.088-0.010-0.126-0.031s-0.067-0.050-0.086-0.086l-1.511-2.353c0 0.045 0 0.089 0 0.134s0 0.084 0 0.119v2.757h-0.494v-3.742h0.431c0.041-0.002 0.081 0.002 0.12 0.012 0.035 0.015 0.064 0.041 0.080 0.072l1.491 2.308c0.029 0.043 0.054 0.087 0.074 0.134z"></path>
<path d="M24.351 42.425v1.405h-0.571v-3.745h1.274c0.24-0.004 0.48 0.024 0.711 0.082 0.185 0.046 0.356 0.125 0.503 0.233 0.127 0.101 0.225 0.227 0.286 0.367 0.067 0.153 0.1 0.315 0.097 0.479 0.003 0.164-0.033 0.327-0.106 0.479-0.069 0.144-0.174 0.272-0.309 0.375-0.147 0.113-0.319 0.197-0.505 0.248-0.222 0.062-0.455 0.091-0.688 0.087l-0.691-0.010zM24.351 42.023h0.691c0.15 0.002 0.3-0.017 0.443-0.057 0.118-0.035 0.227-0.089 0.32-0.161 0.086-0.069 0.152-0.154 0.194-0.248 0.047-0.1 0.070-0.207 0.069-0.315 0.007-0.104-0.013-0.208-0.057-0.305s-0.113-0.184-0.2-0.256c-0.218-0.148-0.492-0.22-0.768-0.201h-0.691v1.543z"></path>
<path d="M32.029 43.835h-0.451c-0.045 0.001-0.090-0.011-0.126-0.035-0.032-0.023-0.058-0.053-0.074-0.087l-0.388-0.906h-1.951l-0.403 0.906c-0.015 0.033-0.039 0.062-0.071 0.084-0.036 0.025-0.082 0.039-0.129 0.037h-0.451l1.714-3.75h0.594l1.737 3.75zM29.201 42.443h1.611l-0.68-1.526c-0.052-0.115-0.095-0.233-0.128-0.352l-0.066 0.196c-0.020 0.060-0.043 0.114-0.063 0.159l-0.674 1.524z"></path>
<path d="M34.497 40.102c0.034 0.016 0.063 0.039 0.086 0.067l2.499 2.827c0-0.045 0-0.089 0-0.132s0-0.084 0-0.124v-2.656h0.511v3.75h-0.286c-0.041 0.001-0.081-0.007-0.117-0.022-0.035-0.018-0.066-0.041-0.091-0.069l-2.496-2.824c0.003 0.043 0.003 0.086 0 0.129 0 0.042 0 0.079 0 0.114v2.673h-0.511v-3.75h0.303c0.035-0.001 0.070 0.005 0.103 0.017z"></path>
<path d="M41.803 42.344v1.489h-0.571v-1.489l-1.579-2.258h0.511c0.044-0.002 0.088 0.009 0.123 0.032 0.031 0.024 0.057 0.053 0.077 0.084l0.988 1.457c0.040 0.062 0.074 0.119 0.103 0.174s0.051 0.107 0.071 0.159l0.074-0.161c0.028-0.059 0.060-0.116 0.097-0.171l0.974-1.467c0.020-0.029 0.045-0.056 0.074-0.079 0.034-0.026 0.078-0.039 0.123-0.037h0.517l-1.582 2.268z"></path>
<path d="M18.576 33.792c0.248 0.027 0.5 0.050 0.754 0.070 3.854-1.498 7.114-3.95 9.374-7.049s3.417-6.708 3.328-10.375l-4.247-3.69c0.864 3.905 0.46 7.941-1.167 11.658s-4.411 6.967-8.042 9.387z"></path>
<path d="M17.059 33.621l0.114 0.020c3.88-2.411 6.839-5.779 8.493-9.667s1.927-8.118 0.785-12.142l-6.050-5.256c2.447 4.32 3.432 9.156 2.84 13.943s-2.735 9.331-6.182 13.102z"></path>
<path d="M37.576 20.771c-1.028 4.030-3.524 7.664-7.118 10.363-1.050 0.793-2.182 1.499-3.382 2.109 2.927-0.747 5.616-2.069 7.862-3.862s3.988-4.011 5.091-6.482l-2.454-2.129z"></path>
<path d="M36.613 20.177l-3.493-3.035c-0.067 3.46-1.199 6.842-3.279 9.794s-5.032 5.365-8.549 6.99h0.017c0.784-0 1.567-0.041 2.345-0.122 3.287-1.166 6.19-3.020 8.452-5.398s3.81-5.205 4.507-8.229z"></path>
<path d="M17.565 4.359l-4.167-3.626c-3.725 1.251-6.93 3.45-9.193 6.309s-3.48 6.245-3.492 9.715v0c0.014 3.834 1.499 7.555 4.221 10.574s6.524 5.162 10.806 6.091c3.822-4.046 6.060-9.045 6.388-14.272s-1.27-10.408-4.563-14.791z"></path>
<path d="M46.242 19.619c-0.015-4.549-2.102-8.908-5.804-12.125s-8.72-5.030-13.956-5.043c-2.42-0.002-4.819 0.386-7.075 1.144l25.515 22.169c0.874-1.96 1.321-4.043 1.32-6.145z"></path>
</symbol>
</defs>
</svg>
