<svg aria-hidden="true" style="position: absolute;  overflow: hidden;" version="1.1" xmlns="http://www.w3.org/2000/svg" xmlns:xlink="http://www.w3.org/1999/xlink">
<defs>
<symbol id="icon-twitter" viewBox="0 0 44 44">
<path d="M44 8.357c-1.636 0.718-3.38 1.194-5.198 1.425 1.87-1.117 3.297-2.871 3.968-4.986-1.743 1.039-3.668 1.774-5.72 2.183-1.656-1.763-4.015-2.854-6.589-2.854-4.994 0-9.014 4.053-9.014 9.023 0 0.715 0.061 1.402 0.209 2.057-7.499-0.366-14.135-3.96-18.593-9.435-0.778 1.35-1.235 2.896-1.235 4.559 0 3.124 1.609 5.893 4.007 7.496-1.449-0.027-2.871-0.448-4.075-1.111 0 0.027 0 0.063 0 0.099 0 4.384 3.127 8.024 7.227 8.863-0.734 0.201-1.534 0.297-2.365 0.297-0.577 0-1.16-0.033-1.708-0.154 1.169 3.572 4.485 6.199 8.429 6.284-3.069 2.401-6.966 3.847-11.184 3.847-0.74 0-1.449-0.033-2.159-0.124 3.996 2.577 8.731 4.048 13.838 4.048 16.599 0 25.674-13.75 25.674-25.668 0-0.399-0.014-0.784-0.033-1.166 1.79-1.271 3.295-2.857 4.521-4.683z"></path>
</symbol>
<symbol id="icon-antenna" viewBox="0 0 44 44">
<path d="M42.313 30.384l-11.609-11.694 1.288-6.346c0.333 0.13 0.686 0.198 1.043 0.2h0.009c1.639 0.019 2.984-1.294 3.004-2.933s-1.294-2.984-2.933-3.003c-1.639-0.019-2.984 1.294-3.003 2.933-0.004 0.351 0.054 0.7 0.172 1.030l-6.82 0.832-11.125-11.183c-0.136-0.139-0.323-0.218-0.518-0.22-0.193 0.001-0.377 0.078-0.513 0.213l-2.080 2.068c-0.286 0.286-0.286 0.751 0 1.037l1.119 1.135c-4.336 7.972-2.927 17.844 3.464 24.286 0.059 0.056 0.127 0.102 0.201 0.134-0.046 0.248-0.070 0.5-0.072 0.752v8.507h-8.8c-2.024 0.002-3.664 1.643-3.667 3.667v1.467c0 0.405 0.328 0.733 0.733 0.733h33.733c0.405 0 0.733-0.328 0.733-0.733v-1.467c-0.002-2.024-1.643-3.664-3.667-3.667h-8.8v-3.77c1.379 0.289 2.783 0.437 4.192 0.44 3.38-0.004 6.706-0.846 9.68-2.452l1.125 1.132c0.136 0.139 0.323 0.218 0.518 0.22 0.192-0.001 0.377-0.078 0.513-0.213l2.080-2.068c0.286-0.286 0.286-0.751 0-1.037zM32.010 8.57c0.574-0.571 1.503-0.569 2.074 0.006s0.569 1.503-0.006 2.074c-0.275 0.273-0.647 0.427-1.035 0.427h-0.004c-0.81-0.004-1.463-0.664-1.459-1.474 0.002-0.388 0.158-0.759 0.432-1.032h-0.003zM30.284 13.389l-0.823 4.050-1.616-1.626 2.439-2.424zM29.45 12.149l-2.64 2.625-2.042-2.053 4.682-0.571zM33.006 39.6c1.215 0 2.2 0.985 2.2 2.2v0.733h-32.267v-0.733c0-1.215 0.985-2.2 2.2-2.2h27.867zM22.739 36.667v1.467h-7.333v-1.467h7.333zM15.406 35.2v-5.573c0-1.779 1.645-3.227 3.667-3.227s3.667 1.448 3.667 3.227v5.573h-7.333zM24.206 32.868v-3.241c0-2.588-2.303-4.693-5.133-4.693-1.83-0.028-3.542 0.904-4.511 2.456-5.579-5.876-6.836-14.637-3.133-21.845l25.578 25.724c-3.95 2.009-8.477 2.575-12.8 1.599zM39.728 31.928l-28.953-29.124 1.038-1.034 10.911 10.972c0.005 0 0.008 0.010 0.013 0.013l18.033 18.138-1.041 1.034z"></path>
<path d="M19.079 27.867h-0.007c-1.215-0.002-2.201 0.982-2.203 2.197s0.982 2.201 2.197 2.203h0.007c1.215 0.002 2.201-0.982 2.203-2.197s-0.982-2.202-2.197-2.203zM19.592 30.587c-0.138 0.137-0.325 0.214-0.52 0.213-0.405-0.002-0.732-0.332-0.73-0.737 0.001-0.194 0.079-0.379 0.216-0.516s0.321-0.212 0.513-0.213c0.405 0.002 0.732 0.332 0.729 0.737-0.001 0.194-0.079 0.379-0.216 0.516h0.007z"></path>
</symbol>
<symbol id="icon-astronaut" viewBox="0 0 44 44">
<path d="M43.964 6.221c-0.087-0.265-0.315-0.458-0.592-0.499l-2.627-0.382-1.176-2.38c-0.246-0.502-1.069-0.502-1.315 0l-1.176 2.38-2.627 0.382c-0.276 0.040-0.505 0.233-0.593 0.499-0.086 0.265-0.015 0.557 0.186 0.752l1.902 1.853-0.449 2.617c-0.047 0.275 0.066 0.553 0.291 0.717 0.228 0.166 0.526 0.186 0.773 0.056l2.35-1.236 2.35 1.236c0.107 0.056 0.225 0.084 0.342 0.084 0.152 0 0.304-0.047 0.431-0.14 0.226-0.164 0.339-0.442 0.291-0.717l-0.449-2.617 1.902-1.853c0.199-0.195 0.271-0.486 0.185-0.752zM40.578 8.045c-0.172 0.168-0.251 0.411-0.21 0.649l0.263 1.532-1.376-0.723c-0.107-0.056-0.224-0.084-0.342-0.084s-0.234 0.028-0.342 0.084l-1.376 0.723 0.263-1.532c0.041-0.238-0.038-0.48-0.21-0.649l-1.114-1.085 1.539-0.224c0.239-0.035 0.445-0.185 0.552-0.401l0.688-1.393 0.688 1.393c0.107 0.216 0.313 0.367 0.552 0.401l1.539 0.224-1.113 1.085z"></path>
<path d="M35.934 28.218h-1.467v1.467h1.467v-1.467z"></path>
<path d="M35.934 31.151h-1.467v1.467h1.467v-1.467z"></path>
<path d="M37.4 29.685h-1.467v1.467h1.467v-1.467z"></path>
<path d="M34.467 29.685h-1.467v1.467h1.467v-1.467z"></path>
<path d="M30.8 36.285h-1.467v1.467h1.467v-1.467z"></path>
<path d="M30.8 39.218h-1.467v1.467h1.467v-1.467z"></path>
<path d="M32.267 37.752h-1.467v1.467h1.467v-1.467z"></path>
<path d="M29.333 37.752h-1.467v1.467h1.467v-1.467z"></path>
<path d="M22 33.351h-1.467v1.467h1.467v-1.467z"></path>
<path d="M22 36.285h-1.467v1.467h1.467v-1.467z"></path>
<path d="M23.467 34.818h-1.467v1.467h1.467v-1.467z"></path>
<path d="M20.533 34.818h-1.467v1.467h1.467v-1.467z"></path>
<path d="M8.066 8.418h-1.467v1.467h1.467v-1.467z"></path>
<path d="M8.066 11.351h-1.467v1.467h1.467v-1.467z"></path>
<path d="M9.533 9.884h-1.467v1.467h1.467v-1.467z"></path>
<path d="M6.6 9.884h-1.467v1.467h1.467v-1.467z"></path>
<path d="M33.983 19.469c-0.395-0.533-0.975-0.876-1.634-0.969-0.661-0.094-1.314 0.080-1.842 0.484l-1.722 1.32-2.609 1.949-1.867-0.744c3.329-1.494 5.656-4.824 5.656-8.69 0-5.257-4.294-9.533-9.572-9.533s-9.572 4.277-9.572 9.533c0 1.905 0.57 3.677 1.54 5.168l-3.8-0.033c-0.002 0-0.004 0-0.007 0-0.012 0-0.021 0.006-0.032 0.007-0.073 0.003-0.144 0.018-0.213 0.043-0.018 0.007-0.036 0.010-0.053 0.018-0.009 0.004-0.018 0.004-0.026 0.009l-4.446 2.195c-0.001 0-0.001 0-0.001 0.001l-2.603 1.252c-0.029 0.012-0.058 0.029-0.087 0.048-1.038 0.691-1.391 2.048-0.823 3.156 0.303 0.59 0.818 1.024 1.452 1.222 0.244 0.076 0.494 0.114 0.741 0.114 0.398 0 0.793-0.098 1.154-0.29l1.908-1.015 3.113-1.608 1.866-0.011-7.482 7.446c-0.001 0.001-0.001 0.001-0.002 0.001l-1.841 1.833c-0.435 0.433-0.674 1.007-0.674 1.619s0.239 1.187 0.674 1.621c0.447 0.444 1.034 0.667 1.621 0.667s1.175-0.223 1.623-0.667l1.807-1.8 2.394-1.787 1.239 1.233-2.422 2.412c-0.001 0.001-0.002 0.001-0.002 0.002l-1.841 1.833c-0.435 0.433-0.674 1.007-0.674 1.619s0.239 1.187 0.674 1.621c0.447 0.444 1.035 0.667 1.622 0.667s1.176-0.223 1.623-0.667l4.787-4.767c0.001-0.001 0.001-0.002 0.001-0.002l1.388-1.375-0.005-0.005c0.009-0.009 0.021-0.012 0.030-0.021l7.103-7.78 4.773 0.679c0.034 0.005 0.069 0.007 0.103 0.007 0.089 0 0.175-0.021 0.257-0.053 0.024-0.009 0.045-0.021 0.068-0.032 0.026-0.013 0.054-0.020 0.079-0.037l4.418-2.933c0.016-0.011 0.025-0.029 0.040-0.040 0.018-0.014 0.040-0.020 0.056-0.035l1.748-1.638c0.91-0.852 1.035-2.249 0.291-3.247zM2.929 24.434c-0.238 0.128-0.509 0.153-0.768 0.071-0.257-0.080-0.465-0.255-0.587-0.492-0.221-0.431-0.093-0.956 0.295-1.24l1.806-0.869 0.617 1.805-1.364 0.725zM7.738 21.921l-2.129 1.1-0.603-1.765 2.787-1.376-0.054 2.040zM28.5 12.818c0 1.263-0.301 2.454-0.824 3.519l-5.749-2.611c-0.060-0.788-0.469-1.478-1.084-1.908l2.013-6.683c3.269 1.040 5.644 4.090 5.644 7.683zM12.29 12.818c0-4.448 3.636-8.067 8.105-8.067 0.348 0 0.688 0.029 1.024 0.072l-1.969 6.536c-0.026-0.001-0.051-0.008-0.079-0.008-1.42 0-2.575 1.151-2.575 2.567s1.155 2.567 2.575 2.567c0.955 0 1.78-0.527 2.225-1.299l5.311 2.413c-1.478 1.989-3.843 3.286-6.513 3.286-4.469 0-8.105-3.619-8.105-8.067zM20.48 13.918c0 0.607-0.497 1.1-1.108 1.1s-1.108-0.493-1.108-1.1c0-0.606 0.497-1.1 1.108-1.1s1.108 0.494 1.108 1.1zM3.389 34.576c-0.325 0.322-0.851 0.321-1.175 0.001-0.156-0.156-0.242-0.362-0.242-0.582s0.086-0.425 0.242-0.579l1.323-1.318 1.17 1.165-1.318 1.313zM7.808 39.71c-0.325 0.322-0.851 0.323-1.176 0.001-0.156-0.156-0.242-0.362-0.242-0.582s0.086-0.425 0.242-0.579l1.324-1.319 1.171 1.165-1.319 1.313zM12.596 34.94c-0.001 0.001-0.002 0.001-0.002 0.001l-2.427 2.42-1.171-1.165 2.424-2.413c0 0 0 0 0-0.001s0.001-0.001 0.002-0.001c0.055-0.055 0.089-0.121 0.123-0.186 0.010-0.019 0.028-0.035 0.036-0.055 0.023-0.056 0.026-0.117 0.035-0.177 0.004-0.034 0.019-0.065 0.019-0.1 0-0.049-0.018-0.097-0.028-0.145-0.009-0.044-0.009-0.089-0.026-0.131-0.028-0.069-0.076-0.13-0.125-0.189-0.014-0.016-0.019-0.037-0.034-0.052 0 0 0 0-0.001 0s-0.001-0.002-0.001-0.003l-2.21-2.2c-0.023-0.024-0.053-0.033-0.080-0.053-0.039-0.030-0.076-0.058-0.12-0.079-0.042-0.021-0.084-0.033-0.128-0.045-0.047-0.013-0.092-0.023-0.142-0.027-0.045-0.003-0.087 0.002-0.131 0.007-0.049 0.006-0.095 0.012-0.143 0.028-0.046 0.015-0.087 0.037-0.13 0.062-0.027 0.015-0.058 0.021-0.084 0.040l-2.438 1.82-1.239-1.234 3.299-3.281 5.996 5.897-1.275 1.264zM21.971 25.292c-0.021-0.003-0.041 0.005-0.062 0.004-0.054-0.003-0.105 0.001-0.158 0.009-0.042 0.007-0.081 0.015-0.121 0.029-0.047 0.016-0.089 0.038-0.133 0.064-0.041 0.025-0.078 0.051-0.114 0.084-0.018 0.015-0.039 0.023-0.055 0.040l-6.46 7.075-5.951-5.853 3.896-3.875c0.287-0.286 0.288-0.75 0.002-1.038-0.144-0.144-0.334-0.216-0.524-0.215v-0.001l-3.051 0.018 0.038-2.21 4.268 0.037c1.739 1.779 4.165 2.889 6.849 2.889 0.601 0 1.188-0.062 1.759-0.169 0.055 0.044 0.109 0.089 0.178 0.117l3.313 1.32 0.455 2.26-4.129-0.587zM27.528 25.537l-0.43-2.142 1.989-1.485 1.302 1.728-2.86 1.899zM32.689 21.644l-1.152 1.079-1.28-1.7 1.143-0.876c0.213-0.164 0.483-0.231 0.747-0.196 0.265 0.037 0.5 0.176 0.66 0.391 0.298 0.401 0.247 0.961-0.117 1.302z"></path>
<path d="M18.703 25.498l-2.947-2.933c-0.285-0.285-0.749-0.285-1.035 0l-2.946 2.933c-0.138 0.139-0.216 0.325-0.216 0.52s0.077 0.382 0.216 0.52l2.946 2.933c0.143 0.142 0.331 0.213 0.518 0.213s0.375-0.071 0.517-0.213l2.947-2.933c0.138-0.138 0.216-0.325 0.216-0.52s-0.078-0.382-0.216-0.52zM15.239 27.917l-1.907-1.899 1.907-1.899 1.907 1.899-1.907 1.899z"></path>
<path d="M23.601 6.972l-0.354 1.424c0.098 0.024 2.389 0.621 2.389 2.955h1.467c-0-2.774-2.29-4.077-3.502-4.379z"></path>
<path d="M27.103 12.818h-1.467v1.467h1.467v-1.467z"></path>
</symbol>
<symbol id="icon-clock" viewBox="0 0 44 44">
<path d="M43.033 21.039c-0.002-11.622-9.426-21.042-21.048-21.039s-21.042 9.426-21.039 21.048c0.002 9.155 5.922 17.258 14.643 20.042 0.083 0.026 0.17 0.040 0.257 0.039 0.166-0 0.328-0.045 0.471-0.129 0.186-0.11 0.324-0.284 0.389-0.49l5.314-16.844c1.453-0.007 2.624-1.191 2.617-2.644s-1.191-2.624-2.644-2.617c-0.391 0.002-0.776 0.092-1.128 0.263l-7.021-7.022c-0.348-0.336-0.903-0.327-1.24 0.021-0.328 0.34-0.328 0.878 0 1.219l7.017 7.025c-0.538 1.099-0.231 2.426 0.738 3.175l-5.064 16.050c-10.007-3.686-15.131-14.787-11.445-24.794s14.787-15.131 24.794-11.445 15.131 14.787 11.445 24.794c-1.801 4.889-5.501 8.843-10.26 10.963l-0.547-2.577c-0.1-0.474-0.566-0.776-1.039-0.676-0.149 0.032-0.288 0.102-0.402 0.204l-5.276 4.71c-0.362 0.322-0.394 0.876-0.072 1.238 0.105 0.117 0.239 0.205 0.389 0.253l6.736 2.15c0.461 0.148 0.955-0.105 1.103-0.567 0.047-0.146 0.055-0.301 0.023-0.45l-0.538-2.529c7.788-3.283 12.845-10.92 12.827-19.373zM21.989 20.162c0.484 0 0.877 0.393 0.877 0.877s-0.393 0.877-0.877 0.877c-0.484 0-0.877-0.392-0.877-0.877s0.392-0.877 0.877-0.877zM24.877 40.6l3.003-2.679 0.829 3.905-3.832-1.227z"></path>
<path d="M21.112 4.379v1.754c0 0.484 0.392 0.877 0.877 0.877s0.877-0.392 0.877-0.877v-1.754c0-0.484-0.393-0.877-0.877-0.877s-0.877 0.393-0.877 0.877z"></path>
<path d="M5.329 20.162c-0.484 0-0.877 0.393-0.877 0.877s0.392 0.877 0.877 0.877h1.754c0.484 0 0.877-0.392 0.877-0.877s-0.392-0.877-0.877-0.877h-1.754z"></path>
<path d="M38.649 21.916c0.484 0 0.877-0.392 0.877-0.877s-0.392-0.877-0.877-0.877h-1.754c-0.484 0-0.877 0.393-0.877 0.877s0.393 0.877 0.877 0.877h1.754z"></path>
</symbol>
<symbol id="icon-diagram" viewBox="0 0 44 44">
<path d="M20.523 20.576h1.466v6.597h-1.466v-6.597z"></path>
<path d="M26.386 23.508h1.466v3.665h-1.466v-3.665z"></path>
<path d="M14.659 25.707h1.466v1.466h-1.466v-1.466z"></path>
<path d="M10.261 24.974h1.466v2.199h-1.466v-2.199z"></path>
<path d="M2.199 38.9h35.182c1.214 0 2.199-0.985 2.199-2.199v-2.932c0-1.214-0.985-2.199-2.199-2.199h-0.733v-18.278l4.163-3.944c0.966 0.476 2.136 0.187 2.768-0.686s0.544-2.074-0.21-2.844-1.953-0.885-2.839-0.272c-0.886 0.613-1.201 1.776-0.746 2.753l-3.137 2.974v-1.691c0-1.214-0.985-2.199-2.199-2.199h-29.318c-1.214 0-2.199 0.985-2.199 2.199v21.988h-0.733c-1.214 0-2.199 0.985-2.199 2.199v2.932c0 1.214 0.985 2.199 2.199 2.199zM41.778 6.65c0.405 0 0.733 0.328 0.733 0.733s-0.328 0.733-0.733 0.733c-0.405 0-0.733-0.328-0.733-0.733s0.328-0.733 0.733-0.733zM4.398 9.582c0-0.405 0.328-0.733 0.733-0.733h29.318c0.405 0 0.733 0.328 0.733 0.733v3.078l-1.466 1.393v-3.005c0-0.405-0.328-0.733-0.733-0.733h-26.386c-0.405 0-0.733 0.328-0.733 0.733v18.324c0 0.405 0.328 0.733 0.733 0.733h26.386c0.405 0 0.733-0.328 0.733-0.733v-13.302l1.466-1.389v16.89h-30.784v-21.988zM10.994 19.11c-0.992-0.003-1.862 0.658-2.126 1.614s0.145 1.97 0.997 2.476c0.852 0.506 1.939 0.379 2.651-0.311l2.548 1.278c0.296 0.148 0.655 0.079 0.875-0.169l5.416-6.093 5.324 3.989c0.286 0.214 0.684 0.191 0.943-0.054l4.627-4.383v11.18h-24.92v-16.858h24.92v3.658l-5.186 4.911-5.369-4.025c-0.305-0.228-0.734-0.185-0.987 0.099l-5.49 6.177-2.052-1.026c0.015-0.088 0.024-0.177 0.028-0.266 0-1.214-0.985-2.199-2.199-2.199zM11.727 21.309c0 0.405-0.328 0.733-0.733 0.733s-0.733-0.328-0.733-0.733c0-0.405 0.328-0.733 0.733-0.733s0.733 0.328 0.733 0.733zM16.125 33.037h7.33v0.733c0 0.405-0.328 0.733-0.733 0.733h-5.864c-0.405 0-0.733-0.328-0.733-0.733v-0.733zM1.466 33.769c0-0.405 0.328-0.733 0.733-0.733h12.46v0.733c0 1.214 0.985 2.199 2.199 2.199h5.864c1.214 0 2.199-0.985 2.199-2.199v-0.733h12.46c0.405 0 0.733 0.328 0.733 0.733v2.932c0 0.405-0.328 0.733-0.733 0.733h-35.182c-0.405 0-0.733-0.328-0.733-0.733v-2.932z"></path>
</symbol>
<symbol id="icon-facebook" viewBox="0 0 44 44">
<path d="M29.328 7.306h4.017v-6.996c-0.693-0.095-3.076-0.31-5.852-0.31-5.791 0-9.759 3.643-9.759 10.338v6.162h-6.391v7.821h6.391v19.679h7.836v-19.677h6.133l0.974-7.821h-7.108v-5.388c0.002-2.261 0.61-3.808 3.76-3.808z"></path>
</symbol>


<symbol id="icon-imail" viewBox="0 0 59 44">
<path d="M53.167 0h-47.667c-3.033 0-5.5 2.467-5.5 5.5v33c0 3.033 2.467 5.5 5.5 5.5h47.667c3.033 0 5.5-2.467 5.5-5.5v-33c0-3.033-2.467-5.5-5.5-5.5zM53.167 3.667c0.249 0 0.486 0.052 0.703 0.142l-24.536 21.265-24.536-21.265c0.217-0.090 0.454-0.142 0.703-0.142h47.667zM53.167 40.333h-47.667c-1.012 0-1.833-0.822-1.833-1.833v-30.818l24.465 21.203c0.346 0.299 0.773 0.448 1.201 0.448s0.856-0.149 1.201-0.448l24.465-21.203v30.818c0 1.012-0.822 1.833-1.833 1.833z"></path>
</symbol>
<symbol id="icon-instagram" viewBox="0 0 44 44">
<path d="M43.957 12.936c-0.103-2.338-0.481-3.945-1.023-5.338-0.559-1.478-1.418-2.802-2.545-3.902-1.1-1.117-2.433-1.986-3.894-2.536-1.401-0.542-3-0.92-5.337-1.023-2.355-0.112-3.103-0.138-9.077-0.138s-6.722 0.026-9.068 0.129c-2.338 0.103-3.945 0.481-5.338 1.023-1.479 0.559-2.802 1.418-3.903 2.544-1.117 1.1-1.985 2.433-2.536 3.894-0.542 1.401-0.92 3-1.023 5.338-0.112 2.355-0.138 3.103-0.138 9.077s0.026 6.721 0.129 9.068c0.103 2.338 0.481 3.945 1.023 5.338 0.559 1.478 1.427 2.802 2.544 3.902 1.1 1.117 2.433 1.986 3.894 2.536 1.401 0.541 3 0.92 5.338 1.023 2.346 0.103 3.094 0.129 9.068 0.129s6.721-0.026 9.068-0.129c2.338-0.103 3.945-0.481 5.337-1.023 2.957-1.143 5.295-3.481 6.438-6.438 0.541-1.401 0.92-3 1.023-5.338 0.103-2.347 0.129-3.095 0.129-9.068s-0.009-6.722-0.112-9.068zM39.995 30.901c-0.095 2.149-0.456 3.309-0.756 4.083-0.739 1.917-2.261 3.438-4.178 4.178-0.774 0.301-1.942 0.662-4.083 0.756-2.321 0.103-3.017 0.129-8.888 0.129s-6.576-0.026-8.888-0.129c-2.149-0.094-3.309-0.455-4.083-0.756-0.954-0.352-1.822-0.911-2.527-1.642-0.731-0.713-1.289-1.573-1.642-2.527-0.301-0.774-0.662-1.943-0.756-4.083-0.103-2.321-0.129-3.017-0.129-8.888s0.026-6.575 0.129-8.887c0.094-2.149 0.455-3.309 0.756-4.083 0.353-0.954 0.911-1.822 1.651-2.527 0.713-0.731 1.573-1.289 2.527-1.642 0.774-0.301 1.943-0.662 4.083-0.756 2.321-0.103 3.017-0.129 8.888-0.129 5.88 0 6.575 0.026 8.888 0.129 2.149 0.095 3.309 0.456 4.083 0.756 0.954 0.352 1.822 0.911 2.527 1.642 0.73 0.713 1.289 1.573 1.642 2.527 0.301 0.774 0.662 1.942 0.756 4.083 0.103 2.321 0.129 3.017 0.129 8.887s-0.026 6.558-0.129 8.879z"></path>
<path d="M22.082 10.701c-6.24 0-11.303 5.063-11.303 11.303s5.063 11.303 11.303 11.303c6.241 0 11.303-5.062 11.303-11.303s-5.063-11.303-11.303-11.303zM22.082 29.336c-4.048 0-7.332-3.283-7.332-7.332s3.284-7.332 7.332-7.332c4.049 0 7.332 3.283 7.332 7.332s-3.283 7.332-7.332 7.332z"></path>
<path d="M36.471 10.254c0 1.457-1.182 2.639-2.639 2.639s-2.639-1.182-2.639-2.639c0-1.458 1.181-2.639 2.639-2.639s2.639 1.181 2.639 2.639z"></path>
</symbol>
<symbol id="icon-linkedin" viewBox="0 0 44 44">
<path d="M43.989 44v-0.002h0.011v-16.137c0-7.894-1.7-13.975-10.928-13.975-4.437 0-7.414 2.435-8.629 4.743h-0.128v-4.006h-8.75v29.375h9.112v-14.546c0-3.83 0.726-7.533 5.469-7.533 4.673 0 4.743 4.371 4.743 7.779v14.302h9.102z"></path>
<path d="M0.726 14.624h9.123v29.376h-9.123v-29.376z"></path>
<path d="M5.284 0c-2.917 0-5.284 2.367-5.284 5.284s2.367 5.333 5.284 5.333c2.917 0 5.284-2.416 5.284-5.333-0.002-2.917-2.369-5.284-5.284-5.284v0z"></path>
</symbol>


<symbol id="icon-smartphone" viewBox="0 0 28 44">
<path d="M23.375 0h-19.25c-2.275 0-4.125 1.85-4.125 4.125v35.75c0 2.275 1.85 4.125 4.125 4.125h19.25c2.275 0 4.125-1.85 4.125-4.125v-35.75c0-2.275-1.85-4.125-4.125-4.125zM4.125 2.75h19.25c0.759 0 1.375 0.616 1.375 1.375v28.875h-22v-28.875c0-0.759 0.616-1.375 1.375-1.375zM23.375 41.25h-19.25c-0.759 0-1.375-0.616-1.375-1.375v-4.125h22v4.125c0 0.759-0.616 1.375-1.375 1.375z"></path>
<path d="M6.472 37.782c0.537 0.502 0.537 1.315 0 1.816s-1.408 0.502-1.945 0c-0.537-0.501-0.537-1.314 0-1.816s1.408-0.501 1.945 0z"></path>
</symbol>
<svg aria-hidden="true" style="position: absolute; width: 0; height: 0; overflow: hidden;" version="1.1" xmlns="http://www.w3.org/2000/svg" xmlns:xlink="http://www.w3.org/1999/xlink">
<defs>
<symbol id="icon-fifth" viewBox="0 0 78 44">
<path fill="#afb2b8" style="fill: var(--color1, #afb2b8)" d="M19.622 32.806c0.179 0.203 0.274 0.456 0.269 0.716 0.009 0.17-0.024 0.339-0.096 0.496s-0.182 0.296-0.321 0.409c-0.347 0.24-0.777 0.357-1.211 0.33h-2.129v-4.54h2.086c0.412-0.025 0.82 0.082 1.156 0.302 0.135 0.103 0.241 0.234 0.312 0.381s0.102 0.308 0.093 0.468c0.012 0.25-0.074 0.497-0.242 0.694-0.162 0.18-0.386 0.305-0.635 0.355 0.282 0.047 0.537 0.185 0.719 0.388zM17.124 32.12h0.891c0.203 0.014 0.404-0.040 0.567-0.151 0.067-0.056 0.119-0.124 0.152-0.201s0.047-0.16 0.039-0.242c0.006-0.082-0.007-0.164-0.040-0.241s-0.084-0.146-0.149-0.202c-0.168-0.114-0.375-0.169-0.584-0.153h-0.877v1.191zM18.67 33.862c0.072-0.057 0.128-0.128 0.164-0.208s0.052-0.167 0.046-0.253c0.005-0.088-0.011-0.175-0.049-0.256s-0.095-0.153-0.167-0.21c-0.174-0.118-0.389-0.177-0.606-0.164h-0.935v1.249h0.947c0.213 0.011 0.424-0.044 0.598-0.157z"></path>
<path fill="#afb2b8" style="fill: var(--color1, #afb2b8)" d="M23.885 34.758l-1.16-1.774h-0.436v1.774h-0.998v-4.54h1.89c0.476-0.030 0.947 0.108 1.315 0.386 0.264 0.246 0.423 0.571 0.449 0.916s-0.084 0.686-0.309 0.963c-0.233 0.244-0.552 0.408-0.901 0.461l1.235 1.814h-1.085zM22.289 32.364h0.816c0.567 0 0.85-0.229 0.85-0.688 0.006-0.094-0.010-0.187-0.046-0.275s-0.091-0.168-0.163-0.235c-0.179-0.136-0.41-0.203-0.642-0.184h-0.826l0.010 1.382z"></path>
<path fill="#afb2b8" style="fill: var(--color1, #afb2b8)" d="M29.341 33.844h-1.989l-0.351 0.914h-1.047l1.827-4.489h1.131l1.819 4.489h-1.046l-0.344-0.914zM29.074 33.156l-0.727-1.916-0.727 1.916h1.453z"></path>
<path fill="#afb2b8" style="fill: var(--color1, #afb2b8)" d="M36.17 34.758h-0.991l-2.221-3.088v3.088h-0.988v-4.54h0.988l2.221 3.105v-3.105h0.991v4.54z"></path>
<path fill="#afb2b8" style="fill: var(--color1, #afb2b8)" d="M41.824 33.671c-0.205 0.343-0.517 0.622-0.896 0.801-0.431 0.199-0.91 0.298-1.393 0.286h-1.764v-4.54h1.764c0.482-0.012 0.96 0.084 1.393 0.279 0.379 0.175 0.692 0.451 0.896 0.792 0.204 0.369 0.31 0.777 0.31 1.191s-0.106 0.822-0.31 1.191zM40.69 33.562c0.283-0.302 0.438-0.686 0.438-1.084s-0.155-0.782-0.438-1.083c-0.342-0.273-0.788-0.412-1.24-0.386h-0.688v2.939h0.688c0.453 0.026 0.899-0.113 1.24-0.386z"></path>
<path fill="#afb2b8" style="fill: var(--color1, #afb2b8)" d="M29.961 4.962c0 0 12.788 4.421 12.517 10.818v10.82c0 0-12.779-4.423-12.512-10.82l-0.005-10.818z"></path>
<path fill="#afb2b8" style="fill: var(--color1, #afb2b8)" d="M53.871 24.067c2.415-1.522 5.209-2.465 8.125-2.742v-3.387c-3.36 1.186-6.211 3.336-8.125 6.129z"></path>
<path fill="#afb2b8" style="fill: var(--color1, #afb2b8)" d="M52.42 25.087c1.977-3.645 5.404-6.457 9.576-7.859v-9.76c0 0-18.212 6.297-17.827 15.407v15.405c0 0 0.812-0.282 2.088-0.81 0-0.492 0-0.989 0.058-1.488 0.377-4.229 2.573-8.148 6.105-10.895z"></path>
<path fill="#afb2b8" style="fill: var(--color1, #afb2b8)" d="M50.688 30.81c0.096-1.068 0.309-2.125 0.637-3.154-2.199 2.372-3.531 5.316-3.808 8.418-0.027 0.293-0.041 0.586-0.048 0.887 1.034-0.455 2.238-1.023 3.503-1.69-0.323-1.467-0.418-2.969-0.283-4.461z"></path>
<path fill="#afb2b8" style="fill: var(--color1, #afb2b8)" d="M51.412 30.865c-0.121 1.35-0.046 2.708 0.225 4.039 4.976-2.726 10.567-6.938 10.351-12.029v-0.444c-3.555 0.364-6.881 1.787-9.467 4.050-0.605 1.402-0.979 2.88-1.109 4.383z"></path>
</symbol>
<symbol id="icon-first" viewBox="0 0 78 44">
<path fill="#afb1b8" style="fill: var(--color2, #afb1b8)" d="M27.867 5.133l5.139 4.865-9.539-0.006v23.604h24.933v-9.025l5.133 4.86v-24.298h-25.667zM48.174 24.001l-14.571-13.794h14.571v13.794zM43.65 30.144h-16.238v-15.875h1.148v14.8h15.090v1.075zM31.247 36.739l-0.6 1.235-0.6-1.235h-0.503l0.876 1.647v0.96h0.455v-0.96l0.874-1.647h-0.501zM32 39.346l0.211-0.607h1.010l0.213 0.607h0.473l-0.986-2.607h-0.406l-0.985 2.607h0.471zM32.716 37.293l0.378 1.081h-0.756l0.378-1.081zM35.105 38.311c-0.066 0.1-0.098 0.211-0.098 0.331 0 0.22 0.077 0.398 0.231 0.535 0.155 0.136 0.362 0.204 0.619 0.204s0.48-0.070 0.666-0.209l0.147 0.174h0.505l-0.383-0.453c0.15-0.205 0.226-0.468 0.226-0.79h-0.378c0 0.175-0.036 0.335-0.109 0.478l-0.503-0.594 0.177-0.129c0.125-0.091 0.215-0.181 0.27-0.272 0.055-0.092 0.082-0.192 0.082-0.301 0-0.165-0.061-0.303-0.183-0.414-0.121-0.112-0.276-0.168-0.466-0.168-0.21 0-0.377 0.060-0.501 0.179-0.124 0.118-0.186 0.279-0.186 0.483 0 0.084 0.020 0.17 0.059 0.26 0.041 0.090 0.112 0.198 0.213 0.326-0.193 0.138-0.323 0.258-0.389 0.36zM36.281 38.888c-0.128 0.098-0.265 0.147-0.412 0.147-0.13 0-0.234-0.038-0.312-0.113s-0.116-0.173-0.116-0.294c0-0.14 0.072-0.264 0.215-0.372l0.056-0.039 0.569 0.671zM35.814 37.733c-0.123-0.152-0.184-0.277-0.184-0.378 0-0.087 0.025-0.159 0.075-0.217s0.118-0.086 0.202-0.086c0.079 0 0.144 0.024 0.195 0.073 0.051 0.048 0.077 0.106 0.077 0.174 0 0.103-0.037 0.187-0.111 0.252l-0.056 0.045-0.199 0.136zM40.057 39.149c0.179-0.156 0.282-0.374 0.308-0.652h-0.451c-0.024 0.186-0.081 0.319-0.17 0.399s-0.223 0.12-0.401 0.12c-0.195 0-0.343-0.074-0.444-0.222-0.1-0.148-0.15-0.363-0.15-0.645v-0.231c0.002-0.278 0.056-0.489 0.161-0.632 0.106-0.144 0.258-0.217 0.455-0.217 0.169 0 0.298 0.042 0.385 0.125 0.088 0.082 0.143 0.217 0.165 0.405h0.451c-0.029-0.285-0.131-0.506-0.306-0.662s-0.407-0.235-0.695-0.235c-0.214 0-0.402 0.051-0.566 0.152-0.162 0.101-0.287 0.246-0.374 0.433s-0.131 0.404-0.131 0.65v0.243c0.004 0.24 0.048 0.451 0.134 0.632s0.208 0.322 0.365 0.421c0.159 0.098 0.342 0.147 0.55 0.147 0.297 0 0.535-0.078 0.714-0.233zM42.719 38.784c0.088-0.193 0.133-0.418 0.133-0.673v-0.145c-0.001-0.254-0.047-0.477-0.136-0.668-0.089-0.192-0.217-0.339-0.381-0.44-0.164-0.103-0.351-0.154-0.564-0.154s-0.401 0.052-0.566 0.156c-0.164 0.103-0.291 0.251-0.381 0.446-0.090 0.195-0.134 0.419-0.134 0.673v0.147c0.001 0.249 0.046 0.47 0.136 0.661 0.091 0.191 0.218 0.338 0.383 0.442 0.166 0.103 0.354 0.154 0.566 0.154 0.214 0 0.402-0.051 0.566-0.154 0.165-0.104 0.291-0.252 0.38-0.444zM42.234 37.31c0.11 0.154 0.165 0.375 0.165 0.664v0.136c0 0.294-0.054 0.517-0.163 0.67-0.107 0.153-0.261 0.229-0.462 0.229-0.198 0-0.353-0.078-0.466-0.235-0.111-0.156-0.167-0.378-0.167-0.664v-0.15c0.002-0.281 0.059-0.497 0.168-0.65 0.111-0.154 0.264-0.231 0.46-0.231 0.2 0 0.355 0.077 0.464 0.231z"></path>
</symbol>
<symbol id="icon-fourth" viewBox="0 0 78 44">
<path   d="M17.707 15.475h-0.002c-1.759 0-3.184 1.267-3.184 2.83v0.002c0 1.563 1.426 2.83 3.184 2.83h0.002c1.759 0 3.184-1.267 3.184-2.83v-0.002c0-1.563-1.426-2.83-3.184-2.83z"></path>
<path  d="M41.21 14.571c-0.005-2.171-0.977-4.251-2.704-5.786s-4.068-2.4-6.51-2.405v0c-2.443 0.004-4.785 0.868-6.513 2.403s-2.701 3.616-2.706 5.788v11.97c0 0 18.431-1.824 18.433-11.968v-0.002z"></path>
<path  d="M8.067 30.47c0.004 1.51 0.681 2.958 1.883 4.026s2.83 1.67 4.53 1.675c1.699-0.004 3.327-0.606 4.529-1.674s1.879-2.515 1.884-4.025v-8.329c0 0-12.825 1.27-12.825 8.327zM14.479 31.962c-0.332 0-0.657-0.087-0.933-0.251s-0.491-0.397-0.618-0.67c-0.127-0.273-0.16-0.573-0.096-0.862s0.225-0.555 0.46-0.764c0.235-0.209 0.534-0.351 0.86-0.408s0.663-0.028 0.97 0.085c0.307 0.113 0.569 0.304 0.754 0.55s0.283 0.534 0.283 0.829c0.001 0.196-0.042 0.391-0.126 0.573s-0.208 0.347-0.364 0.486c-0.156 0.139-0.341 0.25-0.546 0.325s-0.423 0.114-0.644 0.114v-0.006z"></path>
<path  d="M27.44 31.14h-1.237v1.278h-0.645v-3.128h2.037v0.522h-1.392v0.808h1.237v0.52zM30.538 30.925c0 0.308-0.054 0.578-0.163 0.81s-0.265 0.411-0.468 0.537c-0.202 0.126-0.434 0.189-0.696 0.189-0.259 0-0.491-0.062-0.694-0.187s-0.361-0.302-0.473-0.533c-0.112-0.232-0.168-0.498-0.17-0.799v-0.155c0-0.308 0.055-0.579 0.165-0.812 0.112-0.235 0.269-0.415 0.471-0.539 0.203-0.126 0.435-0.189 0.696-0.189s0.492 0.063 0.694 0.189c0.203 0.125 0.36 0.304 0.471 0.539 0.112 0.233 0.168 0.503 0.168 0.81v0.14zM29.885 30.783c0-0.328-0.059-0.577-0.176-0.748s-0.285-0.256-0.503-0.256c-0.216 0-0.383 0.084-0.501 0.254-0.117 0.168-0.177 0.414-0.178 0.739v0.153c0 0.319 0.059 0.567 0.176 0.743s0.286 0.264 0.507 0.264c0.216 0 0.382-0.084 0.498-0.254 0.116-0.17 0.175-0.418 0.176-0.743v-0.153zM32.628 31.598c0-0.122-0.043-0.215-0.129-0.279-0.086-0.066-0.241-0.135-0.464-0.206-0.223-0.073-0.4-0.145-0.531-0.215-0.355-0.192-0.533-0.45-0.533-0.776 0-0.169 0.047-0.319 0.142-0.451 0.096-0.133 0.233-0.237 0.41-0.312 0.179-0.074 0.38-0.112 0.602-0.112 0.223 0 0.423 0.041 0.597 0.122 0.175 0.080 0.31 0.194 0.406 0.342 0.097 0.148 0.146 0.315 0.146 0.503h-0.645c0-0.143-0.045-0.254-0.135-0.333-0.090-0.080-0.217-0.12-0.38-0.12-0.158 0-0.28 0.034-0.367 0.101-0.087 0.066-0.131 0.153-0.131 0.262 0 0.102 0.051 0.187 0.153 0.256 0.103 0.069 0.254 0.133 0.453 0.193 0.367 0.11 0.634 0.247 0.801 0.41s0.251 0.367 0.251 0.61c0 0.271-0.102 0.483-0.307 0.638-0.205 0.153-0.48 0.23-0.827 0.23-0.241 0-0.46-0.044-0.657-0.131-0.198-0.089-0.349-0.21-0.453-0.363-0.103-0.153-0.155-0.331-0.155-0.533h0.647c0 0.345 0.206 0.518 0.619 0.518 0.153 0 0.273-0.031 0.359-0.092 0.086-0.063 0.129-0.15 0.129-0.262zM36.068 29.812h-0.958v2.606h-0.645v-2.606h-0.945v-0.522h2.548v0.522zM38.319 31.063h-1.237v0.838h1.452v0.518h-2.097v-3.128h2.093v0.522h-1.448v0.746h1.237v0.505zM40.070 31.273h-0.513v1.145h-0.645v-3.128h1.162c0.37 0 0.654 0.082 0.855 0.247s0.301 0.397 0.301 0.698c0 0.213-0.046 0.392-0.14 0.535-0.092 0.142-0.231 0.255-0.419 0.339l0.677 1.278v0.030h-0.692l-0.587-1.145zM39.557 30.751h0.52c0.162 0 0.287-0.041 0.376-0.122 0.089-0.083 0.133-0.197 0.133-0.342 0-0.148-0.042-0.264-0.127-0.348-0.083-0.084-0.211-0.127-0.385-0.127h-0.518v0.939zM43.463 31.316v1.102h-0.645v-3.128h1.22c0.235 0 0.441 0.043 0.619 0.129 0.179 0.086 0.317 0.208 0.412 0.367 0.096 0.158 0.144 0.337 0.144 0.539 0 0.307-0.105 0.549-0.316 0.726-0.209 0.176-0.499 0.264-0.87 0.264h-0.565zM43.463 30.794h0.576c0.17 0 0.3-0.040 0.389-0.12 0.090-0.080 0.135-0.195 0.135-0.344 0-0.153-0.045-0.277-0.135-0.372s-0.215-0.143-0.374-0.146h-0.591v0.982zM47.54 31.063h-1.238v0.838h1.452v0.518h-2.097v-3.128h2.093v0.522h-1.448v0.746h1.237v0.505zM50.531 29.812h-0.958v2.606h-0.645v-2.606h-0.945v-0.522h2.548v0.522zM52.783 31.063h-1.237v0.838h1.452v0.518h-2.097v-3.128h2.093v0.522h-1.448v0.746h1.237v0.505zM54.534 31.273h-0.513v1.145h-0.645v-3.128h1.162c0.37 0 0.655 0.082 0.855 0.247s0.301 0.397 0.301 0.698c0 0.213-0.047 0.392-0.14 0.535-0.092 0.142-0.231 0.255-0.419 0.339l0.677 1.278v0.030h-0.692l-0.587-1.145zM54.020 30.751h0.52c0.162 0 0.287-0.041 0.376-0.122 0.089-0.083 0.133-0.197 0.133-0.342 0-0.148-0.042-0.264-0.127-0.348-0.083-0.084-0.211-0.127-0.385-0.127h-0.518v0.939zM57.808 31.598c0-0.122-0.043-0.215-0.129-0.279-0.086-0.066-0.241-0.135-0.464-0.206-0.223-0.073-0.4-0.145-0.531-0.215-0.355-0.192-0.533-0.45-0.533-0.776 0-0.169 0.047-0.319 0.142-0.451 0.096-0.133 0.233-0.237 0.41-0.312 0.179-0.074 0.38-0.112 0.602-0.112 0.223 0 0.423 0.041 0.597 0.122 0.175 0.080 0.31 0.194 0.406 0.342 0.097 0.148 0.146 0.315 0.146 0.503h-0.645c0-0.143-0.045-0.254-0.135-0.333-0.090-0.080-0.217-0.12-0.38-0.12-0.158 0-0.28 0.034-0.367 0.101-0.087 0.066-0.131 0.153-0.131 0.262 0 0.102 0.051 0.187 0.153 0.256 0.103 0.069 0.254 0.133 0.453 0.193 0.367 0.11 0.634 0.247 0.801 0.41s0.251 0.367 0.251 0.61c0 0.271-0.102 0.483-0.307 0.638-0.205 0.153-0.481 0.23-0.827 0.23-0.241 0-0.46-0.044-0.657-0.131-0.198-0.089-0.349-0.21-0.453-0.363-0.103-0.153-0.155-0.331-0.155-0.533h0.647c0 0.345 0.206 0.518 0.619 0.518 0.153 0 0.273-0.031 0.359-0.092 0.086-0.063 0.129-0.15 0.129-0.262z"></path>
</symbol>
<symbol id="icon-second" viewBox="0 0 78 44">
<path fill="#afb1b8" style="fill: var(--color2, #afb1b8)" d="M36.75 4.352h-0.1c-0.154-0.009-0.308-0.013-0.462-0.017v0h-0.334c-0.291 0-0.588 0.007-0.883 0.022-0.022-0.002-0.045-0.002-0.067 0-2.673 0.151-5.291 0.819-7.712 1.967l-0.317 0.153v16.237l0.742-0.252c0.651-0.224 1.345-0.425 2.063-0.612 1.941-0.498 3.934-0.763 5.936-0.789v2.133c-0.265 0.002-0.523 0.009-0.781 0.022h-0.061c-1.541 0.085-3.071 0.319-4.567 0.701-1.895 0.474-3.723 1.187-5.441 2.12v-20.824c1.784-1.041 3.706-1.822 5.708-2.322 1.758-0.454 3.565-0.687 5.38-0.694h0.314c0.375 0.009 0.74 0.026 1.083 0.052 0.904 0.064 1.801 0.206 2.681 0.427v2.1c-0.854-0.199-1.723-0.33-2.597-0.392-0.018-0.002-0.035-0.003-0.053-0.005-0.181-0.015-0.362-0.031-0.531-0.031zM40.445 6.498c0.466 0.035 0.948 0.052 1.436 0.052 1.908-0.007 3.808-0.251 5.656-0.725 1.894-0.476 3.721-1.189 5.439-2.122v20.453c-1.785 1.040-3.708 1.822-5.71 2.322-1.758 0.452-3.565 0.684-5.38 0.692-1.375 0.011-2.746-0.151-4.081-0.481v-20.586c0.315 0.073 0.64 0.14 0.97 0.196 0.542 0.091 1.113 0.159 1.67 0.2zM50.855 6.657l-0.742 0.25c-0.683 0.229-1.371 0.434-2.063 0.617-2.015 0.518-4.085 0.783-6.165 0.791-0.484 0-0.929-0.013-1.36-0.041l-0.592-0.039v16.703l0.508 0.045c0.471 0.041 0.957 0.062 1.447 0.062 1.638-0.007 3.269-0.218 4.855-0.628 1.306-0.328 2.577-0.784 3.794-1.363l0.317-0.153v-16.242z"></path>
<path fill="#afb1b8" style="fill: var(--color2, #afb1b8)" d="M26.207 33.156c-0.107-0.111-0.235-0.198-0.377-0.255s-0.295-0.084-0.448-0.079c-0.163-0.002-0.325 0.028-0.477 0.090-0.139 0.055-0.265 0.138-0.371 0.244-0.105 0.106-0.186 0.233-0.239 0.373-0.058 0.146-0.087 0.303-0.085 0.461v2.782c-0.007 0.196 0.031 0.391 0.109 0.571 0.066 0.143 0.16 0.27 0.278 0.373 0.111 0.094 0.242 0.161 0.382 0.198 0.135 0.038 0.275 0.057 0.416 0.058 0.155 0.002 0.308-0.032 0.449-0.097 0.139-0.061 0.265-0.148 0.371-0.257 0.103-0.108 0.186-0.235 0.243-0.373 0.059-0.14 0.090-0.291 0.089-0.444v-0.311h-0.727v0.248c0.002 0.085-0.012 0.169-0.043 0.248-0.024 0.059-0.060 0.113-0.106 0.157-0.045 0.036-0.097 0.064-0.152 0.080-0.049 0.016-0.1 0.025-0.152 0.026-0.065 0.008-0.131-0.002-0.191-0.028s-0.112-0.068-0.151-0.121c-0.069-0.112-0.102-0.242-0.096-0.373v-2.594c-0.005-0.144 0.026-0.287 0.089-0.416 0.038-0.059 0.091-0.106 0.154-0.135s0.133-0.041 0.202-0.033c0.063-0.002 0.125 0.011 0.182 0.038s0.106 0.068 0.143 0.119c0.081 0.107 0.124 0.238 0.121 0.373v0.241h0.72v-0.283c0.001-0.166-0.029-0.332-0.089-0.487-0.054-0.146-0.136-0.279-0.243-0.392z"></path>
<path fill="#afb1b8" style="fill: var(--color2, #afb1b8)" d="M30.528 33.124c-0.232-0.196-0.525-0.304-0.827-0.306-0.148 0.001-0.295 0.027-0.434 0.078-0.141 0.051-0.272 0.128-0.384 0.227-0.12 0.108-0.217 0.241-0.282 0.39-0.073 0.17-0.109 0.354-0.106 0.539v2.669c-0.005 0.188 0.031 0.374 0.106 0.546 0.066 0.143 0.162 0.271 0.282 0.373 0.111 0.103 0.242 0.183 0.384 0.235 0.139 0.051 0.286 0.078 0.434 0.078s0.295-0.027 0.434-0.078c0.145-0.053 0.278-0.132 0.393-0.235 0.116-0.104 0.209-0.231 0.275-0.373 0.075-0.172 0.111-0.359 0.106-0.546v-2.669c0.004-0.185-0.032-0.369-0.106-0.539-0.065-0.147-0.158-0.28-0.275-0.39zM30.188 36.721c0.006 0.071-0.004 0.143-0.029 0.21s-0.065 0.127-0.116 0.177c-0.096 0.081-0.217 0.125-0.342 0.125s-0.246-0.044-0.342-0.125c-0.051-0.049-0.091-0.11-0.116-0.177s-0.035-0.138-0.029-0.21v-2.669c-0.006-0.071 0.004-0.143 0.029-0.21s0.065-0.127 0.116-0.177c0.096-0.081 0.217-0.125 0.342-0.125s0.246 0.044 0.342 0.125c0.051 0.049 0.091 0.11 0.116 0.177s0.035 0.138 0.029 0.21v2.669z"></path>
<path fill="#afb1b8" style="fill: var(--color2, #afb1b8)" d="M36.203 37.913v-5.052h-0.699l-0.918 2.674h-0.013l-0.926-2.674h-0.692v5.052h0.722v-3.073h0.013l0.707 2.172h0.36l0.712-2.172h0.013v3.073h0.722z"></path>
<path fill="#afb1b8" style="fill: var(--color2, #afb1b8)" d="M40.303 33.215c-0.111-0.125-0.251-0.22-0.408-0.276-0.169-0.055-0.346-0.081-0.523-0.078h-1.072v5.052h0.72v-1.973h0.371c0.225 0.010 0.448-0.037 0.649-0.138 0.164-0.091 0.3-0.224 0.395-0.386 0.083-0.134 0.139-0.284 0.165-0.44 0.028-0.19 0.041-0.382 0.039-0.574 0.007-0.243-0.017-0.485-0.070-0.722-0.048-0.175-0.139-0.335-0.265-0.464zM39.932 34.756c-0.003 0.091-0.026 0.181-0.067 0.263-0.041 0.078-0.106 0.14-0.185 0.177-0.107 0.048-0.223 0.069-0.34 0.063h-0.328v-1.717h0.371c0.112-0.006 0.223 0.016 0.325 0.063 0.074 0.043 0.134 0.108 0.169 0.186 0.039 0.089 0.061 0.185 0.063 0.282 0 0.106 0 0.218 0 0.336s0.007 0.239 0 0.347h-0.007z"></path>
<path fill="#afb1b8" style="fill: var(--color2, #afb1b8)" d="M43.712 32.861h-0.59l-1.113 5.052h0.72l0.211-1.085h0.981l0.211 1.085h0.72l-1.141-5.052zM43.048 36.139l0.354-1.831h0.013l0.353 1.831h-0.72z"></path>
<path fill="#afb1b8" style="fill: var(--color2, #afb1b8)" d="M48.363 35.905h-0.013l-1.087-3.043h-0.692v5.052h0.72v-3.038h0.015l1.1 3.038h0.677v-5.052h-0.72v3.043z"></path>
<path fill="#afb1b8" style="fill: var(--color2, #afb1b8)" d="M52.762 32.861l-0.579 2.008h-0.015l-0.579-2.008h-0.762l0.989 2.917v2.135h0.72v-2.135l0.989-2.917h-0.762z"></path>
<path fill="#afb1b8" style="fill: var(--color2, #afb1b8)" d="M24.2 39.339h0.347v0.973h0.236v-0.973h0.345v-0.2h-0.928v0.2z"></path>
<path fill="#afb1b8" style="fill: var(--color2, #afb1b8)" d="M27.116 39.14l-0.455 1.173h0.25l0.097-0.267h0.468l0.1 0.267h0.256l-0.466-1.173h-0.25zM27.079 39.848l0.16-0.434 0.159 0.434h-0.319z"></path>
<path fill="#afb1b8" style="fill: var(--color2, #afb1b8)" d="M29.999 39.88h0.271v0.151c-0.079 0.063-0.177 0.098-0.278 0.099-0.047 0.003-0.095-0.006-0.138-0.026s-0.081-0.049-0.111-0.086c-0.062-0.089-0.093-0.197-0.087-0.306 0-0.261 0.113-0.392 0.338-0.392 0.059-0.006 0.118 0.010 0.167 0.044s0.084 0.085 0.098 0.143l0.232-0.045c-0.050-0.229-0.215-0.345-0.497-0.345-0.151-0.004-0.297 0.050-0.41 0.151-0.059 0.058-0.105 0.129-0.134 0.207s-0.041 0.161-0.035 0.244c-0.007 0.161 0.047 0.318 0.15 0.44 0.057 0.059 0.127 0.105 0.204 0.135s0.159 0.042 0.241 0.037c0.184 0.005 0.362-0.062 0.497-0.186v-0.462h-0.508v0.198z"></path>
<path fill="#afb1b8" style="fill: var(--color2, #afb1b8)" d="M32.943 39.14h-0.237v1.173h0.822v-0.2h-0.584v-0.973z"></path>
<path fill="#afb1b8" style="fill: var(--color2, #afb1b8)" d="M35.433 39.14h-0.237v1.173h0.237v-1.173z"></path>
<path fill="#afb1b8" style="fill: var(--color2, #afb1b8)" d="M37.867 39.923l-0.48-0.783h-0.23v1.173h0.221v-0.766l0.471 0.766h0.236v-1.173h-0.217v0.783z"></path>
<path fill="#afb1b8" style="fill: var(--color2, #afb1b8)" d="M40.067 39.796h0.584v-0.2h-0.584v-0.257h0.629v-0.2h-0.866v1.173h0.89v-0.2h-0.653v-0.317z"></path>
<path fill="#afb1b8" style="fill: var(--color2, #afb1b8)" d="M45.402 39.602h-0.462v-0.463h-0.236v1.173h0.236v-0.513h0.462v0.513h0.236v-1.173h-0.236v0.463z"></path>
<path fill="#afb1b8" style="fill: var(--color2, #afb1b8)" d="M47.615 39.796h0.586v-0.2h-0.586v-0.257h0.631v-0.2h-0.866v1.173h0.889v-0.2h-0.653v-0.317z"></path>
<path fill="#afb1b8" style="fill: var(--color2, #afb1b8)" d="M50.617 39.796c0.204-0.032 0.308-0.14 0.308-0.326 0.006-0.050-0.002-0.1-0.022-0.146s-0.052-0.086-0.093-0.115c-0.106-0.053-0.225-0.077-0.343-0.069h-0.497v1.173h0.236v-0.49h0.046c0.050-0.003 0.1 0.006 0.147 0.026 0.034 0.021 0.063 0.051 0.084 0.086l0.256 0.373h0.282l-0.143-0.229c-0.063-0.113-0.152-0.21-0.26-0.282zM50.38 39.634h-0.174v-0.295h0.185c0.081-0.007 0.162 0.003 0.239 0.028 0.017 0.015 0.031 0.034 0.040 0.055s0.013 0.044 0.012 0.067c-0.001 0.023-0.007 0.045-0.018 0.065s-0.026 0.038-0.045 0.051c-0.077 0.024-0.159 0.033-0.239 0.028z"></path>
<path fill="#afb1b8" style="fill: var(--color2, #afb1b8)" d="M52.88 39.796h0.584v-0.2h-0.584v-0.257h0.631v-0.2h-0.868v1.173h0.89v-0.2h-0.653v-0.317z"></path>
</symbol>
<symbol id="icon-sixth" viewBox="0 0 78 44">
<path fill="#afb1b8" style="fill: var(--color2, #afb1b8)" d="M39.178 20.099c-0.325-0.433-0.48-0.944-0.443-1.458v-2.114c0-0.648 0.147-1.141 0.441-1.478s0.799-0.505 1.515-0.503c0.673 0 1.15 0.143 1.432 0.43 0.308 0.366 0.458 0.813 0.424 1.265v0.497h-1.203v-0.503c0.004-0.165-0.007-0.329-0.035-0.493-0.017-0.112-0.078-0.215-0.172-0.293-0.124-0.084-0.279-0.125-0.436-0.114-0.165-0.011-0.328 0.032-0.458 0.12-0.105 0.086-0.175 0.199-0.199 0.323-0.035 0.173-0.050 0.348-0.047 0.523v2.566c-0.019 0.248 0.034 0.495 0.154 0.721 0.060 0.076 0.143 0.137 0.24 0.175s0.205 0.052 0.31 0.040c0.154 0.011 0.307-0.031 0.426-0.116 0.098-0.084 0.161-0.194 0.179-0.312 0.028-0.17 0.041-0.342 0.037-0.514v-0.521h1.203v0.475c0.034 0.471-0.112 0.937-0.416 1.329-0.277 0.314-0.747 0.471-1.44 0.471s-1.216-0.168-1.512-0.516z"></path>
<path fill="#afb1b8" style="fill: var(--color2, #afb1b8)" d="M44.188 20.121c-0.304-0.329-0.456-0.809-0.456-1.443v-2.224c0-0.628 0.152-1.103 0.456-1.426s0.812-0.483 1.525-0.482c0.708 0 1.213 0.161 1.517 0.482 0.304 0.323 0.458 0.798 0.458 1.426v2.224c0 0.628-0.154 1.11-0.463 1.441s-0.812 0.497-1.512 0.497c-0.7 0-1.218-0.168-1.525-0.495zM46.274 19.587c0.109-0.206 0.158-0.432 0.145-0.658v-2.723c0.014-0.222-0.035-0.443-0.142-0.645-0.061-0.078-0.146-0.139-0.246-0.177s-0.21-0.051-0.317-0.038c-0.108-0.013-0.218 0-0.318 0.038s-0.186 0.099-0.247 0.177c-0.11 0.201-0.159 0.423-0.144 0.645v2.736c-0.015 0.226 0.034 0.452 0.144 0.658 0.070 0.069 0.157 0.125 0.254 0.163s0.203 0.058 0.309 0.058c0.107 0 0.212-0.020 0.309-0.058s0.184-0.094 0.254-0.163v-0.013z"></path>
<path fill="#afb1b8" style="fill: var(--color2, #afb1b8)" d="M49.136 14.611h1.296l0.974 4.103 0.997-4.103h1.261l0.127 5.923h-0.932l-0.1-4.116-0.962 4.116h-0.747l-0.997-4.131-0.092 4.131h-0.942l0.117-5.923z"></path>
<path fill="#afb1b8" style="fill: var(--color2, #afb1b8)" d="M55.242 14.611h2.018c1.163 0 1.744 0.561 1.744 1.682 0 1.074-0.612 1.61-1.836 1.609h-0.688v2.632h-1.246l0.007-5.923zM56.966 17.142c0.123 0.013 0.248 0.004 0.366-0.029s0.227-0.086 0.319-0.158c0.143-0.2 0.206-0.435 0.179-0.669 0.007-0.181-0.014-0.361-0.060-0.538-0.018-0.059-0.049-0.114-0.092-0.163s-0.096-0.089-0.157-0.119c-0.173-0.072-0.364-0.104-0.556-0.095h-0.483v1.77h0.483z"></path>
<path fill="#afb1b8" style="fill: var(--color2, #afb1b8)" d="M60.8 14.611h1.338l1.373 5.923h-1.161l-0.272-1.366h-1.193l-0.279 1.366h-1.178l1.373-5.923zM61.944 18.482l-0.466-2.486-0.466 2.486h0.932z"></path>
<path fill="#afb1b8" style="fill: var(--color2, #afb1b8)" d="M64.619 14.611h0.872l1.669 3.379v-3.379h1.034v5.923h-0.83l-1.679-3.527v3.527h-1.069l0.002-5.923z"></path>
<path fill="#afb1b8" style="fill: var(--color2, #afb1b8)" d="M70.616 18.275l-1.388-3.656h1.168l0.847 2.349 0.795-2.349h1.143l-1.37 3.656v2.258h-1.196v-2.258z"></path>
<path fill="#afb1b8" style="fill: var(--color2, #afb1b8)" d="M41.102 23.123v0.31h-1.016v2.407h-0.426v-2.407h-1.021v-0.31h2.464z"></path>
<path fill="#afb1b8" style="fill: var(--color2, #afb1b8)" d="M44.288 25.84h-0.329c-0.033 0.002-0.066-0.007-0.092-0.026-0.025-0.016-0.044-0.037-0.055-0.062l-0.294-0.645h-1.41l-0.294 0.645c-0.008 0.027-0.024 0.052-0.045 0.073-0.026 0.018-0.059 0.027-0.092 0.026h-0.329l1.246-2.716h0.434l1.261 2.706zM42.225 24.831h1.176l-0.498-1.105c-0.037-0.084-0.068-0.169-0.092-0.256-0.017 0.052-0.032 0.101-0.047 0.144l-0.045 0.114-0.493 1.103z"></path>
<path fill="#afb1b8" style="fill: var(--color2, #afb1b8)" d="M46.435 25.573c0.078 0.004 0.156 0.004 0.234 0 0.067-0.006 0.134-0.017 0.199-0.032 0.061-0.013 0.121-0.029 0.179-0.050 0.055-0.019 0.11-0.043 0.167-0.067v-0.611h-0.498c-0.012 0.001-0.025-0.001-0.036-0.005s-0.022-0.009-0.031-0.017c-0.008-0.006-0.015-0.014-0.019-0.022s-0.006-0.018-0.006-0.027v-0.209h0.967v1.041c-0.079 0.049-0.162 0.092-0.249 0.129-0.089 0.038-0.181 0.069-0.277 0.092-0.102 0.026-0.206 0.045-0.311 0.056-0.121 0.012-0.242 0.017-0.364 0.017-0.215 0.002-0.428-0.033-0.628-0.101-0.186-0.065-0.356-0.161-0.498-0.284-0.139-0.124-0.248-0.27-0.321-0.43-0.079-0.18-0.117-0.371-0.115-0.564-0.003-0.194 0.035-0.386 0.112-0.568 0.072-0.161 0.181-0.307 0.321-0.43 0.142-0.122 0.312-0.218 0.498-0.282 0.213-0.069 0.44-0.104 0.668-0.101 0.116-0 0.232 0.008 0.346 0.024 0.101 0.014 0.201 0.037 0.296 0.069 0.087 0.028 0.171 0.064 0.249 0.108 0.076 0.042 0.149 0.090 0.217 0.142l-0.12 0.168c-0.009 0.015-0.023 0.028-0.040 0.037s-0.037 0.014-0.057 0.014c-0.028-0.001-0.054-0.008-0.077-0.021-0.037-0.017-0.077-0.039-0.122-0.065-0.053-0.029-0.109-0.053-0.167-0.073-0.074-0.026-0.151-0.046-0.229-0.060-0.104-0.017-0.21-0.024-0.316-0.024-0.164-0.002-0.328 0.024-0.481 0.075-0.139 0.048-0.264 0.121-0.366 0.215-0.103 0.098-0.182 0.213-0.232 0.338-0.111 0.294-0.111 0.611 0 0.906 0.055 0.128 0.139 0.244 0.249 0.342 0.102 0.093 0.226 0.167 0.364 0.215 0.158 0.047 0.326 0.065 0.493 0.054z"></path>
<path fill="#afb1b8" style="fill: var(--color2, #afb1b8)" d="M50.407 25.53h1.36v0.31h-1.776v-2.716h0.426l-0.010 2.407z"></path>
<path fill="#afb1b8" style="fill: var(--color2, #afb1b8)" d="M53.182 25.84h-0.426v-2.716h0.426v2.716z"></path>
<path fill="#afb1b8" style="fill: var(--color2, #afb1b8)" d="M54.766 23.136c0.025 0.012 0.047 0.029 0.065 0.050l1.821 2.048c-0.002-0.032-0.002-0.065 0-0.097 0-0.030 0-0.060 0-0.088v-1.936h0.371v2.727h-0.214c-0.032 0.002-0.064-0.003-0.092-0.015-0.026-0.013-0.049-0.031-0.067-0.052l-1.819-2.046c0 0.032 0 0.062 0 0.093s0 0.058 0 0.084v1.936h-0.356v-2.717h0.222c0.024 0 0.048 0.004 0.070 0.013z"></path>
<path fill="#afb1b8" style="fill: var(--color2, #afb1b8)" d="M60.16 23.123v0.299h-1.51v0.897h1.223v0.288h-1.223v0.927h1.51v0.299h-1.948v-2.71h1.948z"></path>
<path fill="#afb1b8" style="fill: var(--color2, #afb1b8)" d="M15.519 6.347l18.916 4.637v16.249l-18.916-4.635v-16.251zM14.305 4.962v18.426l21.34 5.233v-18.424l-21.34-5.235z"></path>
<path fill="#afb1b8" style="fill: var(--color2, #afb1b8)" d="M25.743 37.174l-21.343-5.237v-18.424l21.343 5.235v18.426z"></path>
<path fill="#afb1b8" style="fill: var(--color2, #afb1b8)" d="M14.659 6.139l18.67 4.579-7.94 6.857-18.672-4.581 7.942-6.854zM14.305 4.962l-9.905 8.551 21.343 5.235 9.903-8.551-21.34-5.235z"></path>
<path fill="#afb1b8" style="fill: var(--color2, #afb1b8)" d="M26.944 36.138l8.702-7.515-8.702-2.136v9.65z"></path>
</symbol>
<symbol id="icon-third" viewBox="0 0 78 44">
<path fill="#afb1b8" style="fill: var(--color2, #afb1b8)" d="M26.698 36.008c0.012 0 0.023 0.003 0.034 0.007s0.020 0.010 0.028 0.018l0.16 0.153c-0.124 0.124-0.278 0.223-0.45 0.29-0.202 0.074-0.419 0.109-0.638 0.104-0.206 0.004-0.41-0.029-0.6-0.097-0.172-0.062-0.326-0.156-0.452-0.274-0.129-0.123-0.228-0.267-0.292-0.424-0.070-0.175-0.104-0.359-0.102-0.544-0.003-0.186 0.034-0.371 0.11-0.546 0.070-0.158 0.175-0.302 0.31-0.424 0.137-0.12 0.3-0.214 0.48-0.276 0.197-0.066 0.407-0.099 0.618-0.097 0.196-0.004 0.391 0.026 0.574 0.089 0.158 0.060 0.304 0.143 0.43 0.245l-0.134 0.163c-0.009 0.012-0.021 0.021-0.034 0.030-0.016 0.009-0.035 0.014-0.054 0.012-0.021-0.001-0.041-0.007-0.058-0.017l-0.072-0.043-0.1-0.056c-0.043-0.021-0.088-0.039-0.134-0.054-0.059-0.018-0.12-0.033-0.182-0.043-0.078-0.013-0.158-0.018-0.238-0.017-0.152-0.002-0.303 0.023-0.444 0.073-0.131 0.046-0.25 0.116-0.348 0.205-0.1 0.095-0.177 0.206-0.226 0.327-0.056 0.138-0.084 0.284-0.082 0.431-0.002 0.149 0.025 0.297 0.082 0.438 0.049 0.12 0.124 0.23 0.222 0.325 0.092 0.088 0.205 0.157 0.332 0.202 0.131 0.047 0.271 0.071 0.412 0.069 0.082 0.001 0.163-0.004 0.244-0.014 0.132-0.014 0.258-0.054 0.37-0.116 0.056-0.032 0.109-0.068 0.158-0.108 0.021-0.017 0.048-0.027 0.076-0.028z"></path>
<path fill="#afb1b8" style="fill: var(--color2, #afb1b8)" d="M31.316 35.239c0.002 0.184-0.034 0.367-0.108 0.54-0.065 0.157-0.168 0.3-0.301 0.419s-0.294 0.214-0.473 0.275c-0.391 0.13-0.824 0.13-1.216 0-0.177-0.063-0.337-0.157-0.47-0.276-0.133-0.122-0.237-0.266-0.304-0.424-0.144-0.35-0.144-0.732 0-1.082 0.068-0.158 0.172-0.302 0.304-0.426 0.134-0.116 0.294-0.206 0.47-0.266 0.391-0.132 0.825-0.132 1.216 0 0.178 0.063 0.338 0.157 0.472 0.276 0.132 0.121 0.234 0.263 0.302 0.419 0.074 0.174 0.111 0.358 0.108 0.544zM30.897 35.239c0.003-0.147-0.023-0.294-0.076-0.434-0.045-0.12-0.118-0.23-0.214-0.325-0.094-0.089-0.209-0.159-0.338-0.205-0.284-0.095-0.599-0.095-0.884 0-0.129 0.046-0.244 0.116-0.338 0.205-0.098 0.094-0.171 0.205-0.216 0.325-0.102 0.283-0.102 0.586 0 0.869 0.045 0.12 0.119 0.231 0.216 0.325 0.094 0.089 0.209 0.158 0.338 0.203 0.285 0.093 0.599 0.093 0.884 0 0.129-0.045 0.244-0.115 0.338-0.203 0.096-0.095 0.169-0.205 0.214-0.325 0.054-0.14 0.079-0.287 0.076-0.434z"></path>
<path fill="#afb1b8" style="fill: var(--color2, #afb1b8)" d="M34.468 35.695l0.042 0.097c0.016-0.035 0.030-0.066 0.046-0.097 0.015-0.033 0.033-0.065 0.052-0.096l1.022-1.614c0.020-0.028 0.038-0.045 0.058-0.050 0.027-0.007 0.056-0.010 0.084-0.009h0.302v2.625h-0.358v-1.93c0-0.024 0-0.052 0-0.082-0.002-0.030-0.002-0.060 0-0.090l-1.028 1.636c-0.013 0.024-0.034 0.045-0.060 0.060s-0.057 0.022-0.088 0.022h-0.058c-0.031 0-0.062-0.007-0.088-0.022s-0.047-0.035-0.060-0.060l-1.058-1.647c0 0.031 0 0.063 0 0.094s0 0.059 0 0.083v1.93h-0.346v-2.62h0.302c0.028-0.001 0.057 0.001 0.084 0.009 0.025 0.011 0.045 0.029 0.056 0.050l1.044 1.616c0.020 0.030 0.038 0.061 0.052 0.094z"></path>
<path fill="#afb1b8" style="fill: var(--color2, #afb1b8)" d="M38.312 35.564v0.983h-0.4v-2.621h0.892c0.168-0.003 0.336 0.017 0.498 0.057 0.129 0.032 0.249 0.088 0.352 0.163 0.089 0.071 0.157 0.159 0.2 0.257 0.047 0.107 0.070 0.221 0.068 0.335 0.002 0.115-0.023 0.229-0.074 0.335-0.048 0.101-0.122 0.19-0.216 0.262-0.103 0.079-0.223 0.138-0.354 0.174-0.156 0.043-0.318 0.064-0.482 0.061l-0.484-0.007zM38.312 35.283h0.484c0.105 0.001 0.21-0.012 0.31-0.040 0.083-0.024 0.159-0.063 0.224-0.113 0.060-0.048 0.107-0.108 0.136-0.174 0.033-0.070 0.049-0.145 0.048-0.221 0.005-0.073-0.009-0.146-0.040-0.214s-0.079-0.129-0.14-0.179c-0.153-0.104-0.345-0.154-0.538-0.141h-0.484v1.080z"></path>
<path fill="#afb1b8" style="fill: var(--color2, #afb1b8)" d="M43.687 36.551h-0.316c-0.032 0.001-0.063-0.008-0.088-0.024-0.023-0.016-0.041-0.037-0.052-0.061l-0.272-0.634h-1.366l-0.282 0.634c-0.010 0.023-0.028 0.044-0.050 0.059-0.025 0.018-0.057 0.027-0.090 0.026h-0.316l1.2-2.625h0.416l1.216 2.625zM41.707 35.576h1.128l-0.476-1.068c-0.036-0.080-0.066-0.163-0.090-0.247l-0.046 0.137c-0.014 0.042-0.030 0.080-0.044 0.111l-0.472 1.067z"></path>
<path fill="#afb1b8" style="fill: var(--color2, #afb1b8)" d="M45.414 33.938c0.024 0.011 0.044 0.027 0.060 0.047l1.75 1.979c0-0.031 0-0.063 0-0.092s0-0.059 0-0.087v-1.859h0.358v2.625h-0.2c-0.028 0.001-0.057-0.005-0.082-0.016-0.025-0.013-0.046-0.029-0.064-0.049l-1.747-1.977c0.002 0.030 0.002 0.060 0 0.090 0 0.029 0 0.056 0 0.080v1.871h-0.358v-2.625h0.212c0.025-0.001 0.049 0.004 0.072 0.012z"></path>
<path fill="#afb1b8" style="fill: var(--color2, #afb1b8)" d="M50.529 35.507v1.042h-0.4v-1.042l-1.106-1.581h0.358c0.031-0.002 0.061 0.006 0.086 0.023 0.022 0.017 0.040 0.037 0.054 0.059l0.692 1.020c0.028 0.043 0.052 0.083 0.072 0.122s0.036 0.075 0.050 0.111l0.052-0.113c0.019-0.041 0.042-0.081 0.068-0.12l0.682-1.027c0.014-0.020 0.032-0.039 0.052-0.056 0.024-0.018 0.054-0.027 0.086-0.026h0.362l-1.108 1.588z"></path>
<path fill="#afb1b8" style="fill: var(--color2, #afb1b8)" d="M34.27 29.521c0.174 0.019 0.35 0.035 0.528 0.049 2.698-1.049 4.98-2.765 6.562-4.934s2.392-4.696 2.33-7.263l-2.973-2.583c0.604 2.733 0.322 5.559-0.817 8.161s-3.088 4.877-5.629 6.571z"></path>
<path fill="#afb1b8" style="fill: var(--color2, #afb1b8)" d="M33.208 29.401l0.080 0.014c2.716-1.688 4.787-4.045 5.945-6.767s1.349-5.682 0.549-8.499l-4.235-3.679c1.713 3.024 2.402 6.409 1.988 9.76s-1.915 6.532-4.327 9.171z"></path>
<path fill="#afb1b8" style="fill: var(--color2, #afb1b8)" d="M47.57 20.406c-0.719 2.821-2.467 5.365-4.983 7.254-0.735 0.555-1.527 1.049-2.367 1.477 2.049-0.523 3.931-1.448 5.504-2.703s2.791-2.808 3.564-4.537l-1.717-1.491z"></path>
<path fill="#afb1b8" style="fill: var(--color2, #afb1b8)" d="M46.896 19.991l-2.445-2.125c-0.047 2.422-0.839 4.789-2.295 6.856s-3.522 3.756-5.984 4.893h0.012c0.549-0 1.097-0.029 1.641-0.085 2.301-0.816 4.333-2.114 5.916-3.778s2.667-3.643 3.155-5.76z"></path>
<path fill="#afb1b8" style="fill: var(--color2, #afb1b8)" d="M33.562 8.918l-2.917-2.538c-2.608 0.876-4.851 2.415-6.435 4.416s-2.436 4.372-2.444 6.801v0c0.010 2.684 1.050 5.289 2.955 7.401s4.567 3.613 7.564 4.264c2.675-2.832 4.242-6.332 4.472-9.99s-0.889-7.286-3.194-10.354z"></path>
<path fill="#afb1b8" style="fill: var(--color2, #afb1b8)" d="M53.636 19.6c-0.011-3.184-1.471-6.236-4.063-8.488s-6.104-3.521-9.769-3.53c-1.694-0.002-3.373 0.27-4.953 0.801l17.861 15.518c0.612-1.372 0.925-2.83 0.924-4.301z"></path>
</symbol>
<symbol id="icon-fifth" viewBox="0 0 78 44">
<path fill="#afb2b8" style="fill: var(--color1, #afb2b8)" d="M19.622 32.806c0.179 0.203 0.274 0.456 0.269 0.716 0.009 0.17-0.024 0.339-0.096 0.496s-0.182 0.296-0.321 0.409c-0.347 0.24-0.777 0.357-1.211 0.33h-2.129v-4.54h2.086c0.412-0.025 0.82 0.082 1.156 0.302 0.135 0.103 0.241 0.234 0.312 0.381s0.102 0.308 0.093 0.468c0.012 0.25-0.074 0.497-0.242 0.694-0.162 0.18-0.386 0.305-0.635 0.355 0.282 0.047 0.537 0.185 0.719 0.388zM17.124 32.12h0.891c0.203 0.014 0.404-0.040 0.567-0.151 0.067-0.056 0.119-0.124 0.152-0.201s0.047-0.16 0.039-0.242c0.006-0.082-0.007-0.164-0.040-0.241s-0.084-0.146-0.149-0.202c-0.168-0.114-0.375-0.169-0.584-0.153h-0.877v1.191zM18.67 33.862c0.072-0.057 0.128-0.128 0.164-0.208s0.052-0.167 0.046-0.253c0.005-0.088-0.011-0.175-0.049-0.256s-0.095-0.153-0.167-0.21c-0.174-0.118-0.389-0.177-0.606-0.164h-0.935v1.249h0.947c0.213 0.011 0.424-0.044 0.598-0.157z"></path>
<path fill="#afb2b8" style="fill: var(--color1, #afb2b8)" d="M23.885 34.758l-1.16-1.774h-0.436v1.774h-0.998v-4.54h1.89c0.476-0.030 0.947 0.108 1.315 0.386 0.264 0.246 0.423 0.571 0.449 0.916s-0.084 0.686-0.309 0.963c-0.233 0.244-0.552 0.408-0.901 0.461l1.235 1.814h-1.085zM22.289 32.364h0.816c0.567 0 0.85-0.229 0.85-0.688 0.006-0.094-0.010-0.187-0.046-0.275s-0.091-0.168-0.163-0.235c-0.179-0.136-0.41-0.203-0.642-0.184h-0.826l0.010 1.382z"></path>
<path fill="#afb2b8" style="fill: var(--color1, #afb2b8)" d="M29.341 33.844h-1.989l-0.351 0.914h-1.047l1.827-4.489h1.131l1.819 4.489h-1.046l-0.344-0.914zM29.074 33.156l-0.727-1.916-0.727 1.916h1.453z"></path>
<path fill="#afb2b8" style="fill: var(--color1, #afb2b8)" d="M36.17 34.758h-0.991l-2.221-3.088v3.088h-0.988v-4.54h0.988l2.221 3.105v-3.105h0.991v4.54z"></path>
<path fill="#afb2b8" style="fill: var(--color1, #afb2b8)" d="M41.824 33.671c-0.205 0.343-0.517 0.622-0.896 0.801-0.431 0.199-0.91 0.298-1.393 0.286h-1.764v-4.54h1.764c0.482-0.012 0.96 0.084 1.393 0.279 0.379 0.175 0.692 0.451 0.896 0.792 0.204 0.369 0.31 0.777 0.31 1.191s-0.106 0.822-0.31 1.191zM40.69 33.562c0.283-0.302 0.438-0.686 0.438-1.084s-0.155-0.782-0.438-1.083c-0.342-0.273-0.788-0.412-1.24-0.386h-0.688v2.939h0.688c0.453 0.026 0.899-0.113 1.24-0.386z"></path>
<path fill="#afb2b8" style="fill: var(--color1, #afb2b8)" d="M29.961 4.962c0 0 12.788 4.421 12.517 10.818v10.82c0 0-12.779-4.423-12.512-10.82l-0.005-10.818z"></path>
<path fill="#afb2b8" style="fill: var(--color1, #afb2b8)" d="M53.871 24.067c2.415-1.522 5.209-2.465 8.125-2.742v-3.387c-3.36 1.186-6.211 3.336-8.125 6.129z"></path>
<path fill="#afb2b8" style="fill: var(--color1, #afb2b8)" d="M52.42 25.087c1.977-3.645 5.404-6.457 9.576-7.859v-9.76c0 0-18.212 6.297-17.827 15.407v15.405c0 0 0.812-0.282 2.088-0.81 0-0.492 0-0.989 0.058-1.488 0.377-4.229 2.573-8.148 6.105-10.895z"></path>
<path fill="#afb2b8" style="fill: var(--color1, #afb2b8)" d="M50.688 30.81c0.096-1.068 0.309-2.125 0.637-3.154-2.199 2.372-3.531 5.316-3.808 8.418-0.027 0.293-0.041 0.586-0.048 0.887 1.034-0.455 2.238-1.023 3.503-1.69-0.323-1.467-0.418-2.969-0.283-4.461z"></path>
<path fill="#afb2b8" style="fill: var(--color1, #afb2b8)" d="M51.412 30.865c-0.121 1.35-0.046 2.708 0.225 4.039 4.976-2.726 10.567-6.938 10.351-12.029v-0.444c-3.555 0.364-6.881 1.787-9.467 4.050-0.605 1.402-0.979 2.88-1.109 4.383z"></path>
</symbol>
</defs>
</svg>

</defs>
</svg>
